<svg id="Layer_1" data-name="Layer 1" xmlns="http://www.w3.org/2000/svg" xmlns:xlink="http://www.w3.org/1999/xlink" viewBox="0 0 216.93 215.92"><defs><clipPath id="clip-path" transform="translate(-275.53 -276.04)"><path d="M365.83,326.27l2,2.35s1.39,3,16.12,1.56,17.76-13.06,17.76-13.06a14.67,14.67,0,0,0-.93-3.08.09.09,0,0,0-.07,0c-.3,0-.54,1.85-1.35,2.42s-5.49,7.84-18.47,9.06S365,321.83,365,321.83Z" style="fill:none"/></clipPath><linearGradient id="linear-gradient" x1="171.92" y1="723.96" x2="178.67" y2="723.96" gradientTransform="matrix(5.43, 0, 0, -5.43, -843.42, 3975.53)" gradientUnits="userSpaceOnUse"><stop offset="0" stop-color="#ffeba8"/><stop offset="0.01" stop-color="#ffeba8"/><stop offset="0.19" stop-color="#ffe697"/><stop offset="0.57" stop-color="#ffda69"/><stop offset="1" stop-color="#ffcb2f"/></linearGradient><clipPath id="clip-path-2" transform="translate(-275.53 -276.04)"><path d="M367.21,331.8a8,8,0,0,0,.39,1.67,3.41,3.41,0,0,0,.66.67,6.47,6.47,0,0,0,2,1.29,16.6,16.6,0,0,0,4.45,1.45,21.35,21.35,0,0,0,3.41.38c1.18,0,2.43-.07,3.72-.19a36.69,36.69,0,0,0,3.78-.76c1.32-.28,2.66-.43,3.79-.77.28-.08.53-.28.81-.39a40.24,40.24,0,0,0,5-2.06c.47-.24,1-.43,1.39-.67a35.91,35.91,0,0,1,3.2-2.05c1.24-1.5,2.77-2.24,3.16-4.74a11.13,11.13,0,0,0-.28-3.85c-.1-.66-.23-1.45-.34-2.08s-.11-2.16-.61-2.57c-.1,0-1,6.9-11.3,10.36-6.46,2.7-13.65,2.52-16.85,2.16a17.36,17.36,0,0,1-7.6-3.06c.29,1.78.84,3.51,1.24,5.22" style="fill:none"/></clipPath><linearGradient id="linear-gradient-2" x1="179.98" y1="722.26" x2="186.74" y2="722.26" gradientTransform="matrix(5.5, 0, 0, -5.5, -622.57, 4296.01)" gradientUnits="userSpaceOnUse"><stop offset="0" stop-color="#002d62"/><stop offset="0.13" stop-color="#002d62"/><stop offset="0.14" stop-color="#143f73"/><stop offset="0.18" stop-color="#4b72a1"/><stop offset="0.21" stop-color="#7396c2"/><stop offset="0.24" stop-color="#8badd6"/><stop offset="0.26" stop-color="#94b5de"/><stop offset="0.28" stop-color="#85a8d2"/><stop offset="0.33" stop-color="#5f84b2"/><stop offset="0.39" stop-color="#224c7e"/><stop offset="0.42" stop-color="#002d62"/><stop offset="0.78" stop-color="#002d62"/><stop offset="1" stop-color="#002d62"/></linearGradient><clipPath id="clip-path-3" transform="translate(-275.53 -276.04)"><path d="M404.69,323.22c3.09-.14,6.24-.19,9.52-.19,1.64,0,3.27-.11,4.89-.05s3.18.31,4.74.24c-.34-.85-1.85-1-1.87-2s1.24-1.1,1.43-1.78c-2.23-.15-4.62-.22-6.92-.22-.73,0-1.46,0-2.16,0-.34,0-.72,0-1.09,0a11.22,11.22,0,0,0-3.41.28,13.94,13.94,0,0,0-2.82,1.68,15.61,15.61,0,0,0-2,1.43c-.15.14-.34.36-.34.5s0,0,0,0" style="fill:none"/></clipPath><linearGradient id="linear-gradient-3" x1="180.1" y1="762.85" x2="186.85" y2="762.85" gradientTransform="matrix(2.83, 0, 0, -2.83, -381.22, 2207.06)" gradientUnits="userSpaceOnUse"><stop offset="0" stop-color="#002157"/><stop offset="0.42" stop-color="#002a5f"/><stop offset="1" stop-color="#002d62"/></linearGradient><clipPath id="clip-path-4" transform="translate(-275.53 -276.04)"><path d="M402.53,318.78a12.12,12.12,0,0,0,2.3-1.81,7.31,7.31,0,0,0-2.59-.63,2,2,0,0,0,0,.41,10.69,10.69,0,0,0,.32,2m-36.85,5a5.64,5.64,0,0,0,2.7,2.29c3,1.49,6.39,1.64,9.74,1.59,5.29-.06,11.29-1.17,15.85-4,2.2-1.34,4.91-3.49,6.1-5.79a3.46,3.46,0,0,0,.53-2.74,2.45,2.45,0,0,0-1.84-1.77,34.45,34.45,0,0,0-10.29-1.58,30.32,30.32,0,0,0-7.31.87,31.94,31.94,0,0,0-7.94,3.14,35.15,35.15,0,0,0-3.51,2.2,17.68,17.68,0,0,0-3.07,2.74,3.46,3.46,0,0,0-1.14,2.16,2.17,2.17,0,0,0,.18.85m-2.35,15.56c3.09,1.37,6.4,1.41,9.7,1.86a44.87,44.87,0,0,0,10.21,0,42.6,42.6,0,0,0,9.33-1.91,39.74,39.74,0,0,0,9.63-4.08,40.5,40.5,0,0,0,7.66-6.07,11.61,11.61,0,0,0,2.24-3.45c.38-1,.34-1.42-.49-1.75a3.72,3.72,0,0,0-1.26-.18c-.57,0-1.16.05-1.61.05-1.14,0-2.26.12-3.39.09-.3,0-1.76-.26-2,0-.08.09,0,.32,0,.61a3.15,3.15,0,0,1,0,.76c-.18,1.39-2.14,3.38-3.6,4.54a31.4,31.4,0,0,1-12.38,5.79c-4.82,1-9.95,1.89-14.77.36-1.9-.61-4.24-1.45-5.25-3.28-1.1-2-1.58-4.74-2.12-7A11.25,11.25,0,0,0,359.6,333a6.14,6.14,0,0,0-.13,1.23c0,2.46,1.64,4.18,3.87,5.16" style="fill:none"/></clipPath><linearGradient id="linear-gradient-4" x1="172.56" y1="710.68" x2="179.32" y2="710.68" gradientTransform="matrix(7.82, 0, 0, -7.82, -1266.29, 5611.57)" xlink:href="#linear-gradient"/><clipPath id="clip-path-5" transform="translate(-275.53 -276.04)"><path d="M395.77,376.91a23.89,23.89,0,0,1,8.07-1.55c-.41-1.12.41-2.85,1.23-3,1.7-.34,2.67,1.22,2.31,3a23.91,23.91,0,0,1,6,1.07c.18.19.52.24.66.49a4.78,4.78,0,0,0,.74-.23c.2-.78,1-1.57.45-2.52-1.38,0-.26-.82,0-1.38.51-1.36-.66-2-1.16-2.7.16-.36.49-.51.61-.8.76-1.77-1.49-2.26-2.17-3.05a2.06,2.06,0,0,0-.08-2.09c-.57-.76-2.87-.8-3-1.68a.94.94,0,0,1,.07-.45.92.92,0,0,0,.07-.39c-.09-.63-.93-1-1.59-.93a1.69,1.69,0,0,0-1.33-.44c-.84,0-1.86.24-2.61.26a2.44,2.44,0,0,0-2.36,1.68c.09.21.41.19.41.49-.35.35-.84.18-1.24.31a3.29,3.29,0,0,0-2.3,2.93c.09.19.37.19.41.45-1.07,1-2.73,1.33-2.49,3.58.31.07.7,0,.76.36a4.92,4.92,0,0,0-1.24,1.11c-.38.49-.94,1.18-.4,1.78.35-.15.77-.2.93.18a9.94,9.94,0,0,0-1.41,1.59,1.82,1.82,0,0,0,.71,2" style="fill:none"/></clipPath><linearGradient id="linear-gradient-5" x1="177.11" y1="744.43" x2="183.87" y2="744.43" gradientTransform="matrix(3.02, 0, 0, -3.02, -416.22, 2344.13)" xlink:href="#linear-gradient"/><clipPath id="clip-path-6" transform="translate(-275.53 -276.04)"><path d="M412.78,377h0a23.24,23.24,0,0,0-8-1.19c-.84,0-1.68,0-2.48.09s-1.48.28-2.21.34a7.83,7.83,0,0,0-3.41,1,38.05,38.05,0,0,0,16.13-.22" style="fill:none"/></clipPath><linearGradient id="linear-gradient-6" x1="178" y1="758.04" x2="184.75" y2="758.04" gradientTransform="matrix(2.39, 0, 0, -2.39, -303.77, 1910.56)" xlink:href="#linear-gradient"/><clipPath id="clip-path-7" transform="translate(-275.53 -276.04)"><polygon points="354.26 368.03 355.01 369.02 355.73 369.33 356.11 370.36 356.55 372.06 356.71 372.89 356.31 373.8 356.66 374.7 357.1 375.46 354.66 381.13 356.16 381.72 356.9 382.55 358.32 382.55 360.13 382.83 362.15 382.59 364.04 382.63 365.69 381.68 366.52 381.8 367.75 381.09 366.48 378.25 365.81 375.72 365.66 375.1 366.29 374.23 366.61 373.2 366.02 372.65 365.69 372.61 365.94 371.27 366.25 370.36 366.96 369.18 367.87 367.81 368.57 367.48 369.01 366.53 368.34 365.79 368.77 365.32 369.29 364.65 367.9 363.94 369.01 362.27 369.09 361.8 367.75 361.89 367.75 361.25 368.42 359.79 367.55 359.4 366.41 359.79 366.29 359.12 367.04 356.75 366.25 356.83 364.55 357.85 364.91 356.24 364.83 355.3 363.57 356.36 363.06 357.11 362.74 355.69 362.54 354.24 361.83 354.86 361.17 356.64 360.22 354.67 359.62 355.34 359.15 356.8 358.95 355.81 358.32 355.41 358.08 357.11 358.01 357.85 357.38 357.16 356.78 356.72 356.35 358.14 356.27 359.2 355.49 358.65 355.29 359.4 355.37 360.66 355.4 361.09 354.54 360.82 354.5 363.27 353.67 363.46 353.87 363.77 353.99 364.92 354.5 366.02 354.58 366.66 353.56 366.5 354.26 368.03" style="fill:none"/></clipPath><linearGradient id="linear-gradient-7" x1="162.28" y1="763.12" x2="169.03" y2="763.12" gradientTransform="matrix(2.33, 0, 0, -2.33, -299.8, 1869.22)" xlink:href="#linear-gradient"/><clipPath id="clip-path-8" transform="translate(-275.53 -276.04)"><path d="M380.53,397.51a.88.88,0,0,0,.27.71c.16.2.32.36.26.65s-.48.51-.44.68c0,.8.51.9.79,1.32h0a1.17,1.17,0,0,0,.24.44c.16.43.55.29.82,1,.14.09,0,.06-.09,0s-.2-.07-.23,0c.31.81.25.89.79,1.44.18.19.91,0,.85.26.51,0,.61.06.95-.26.14-.14.75,0,.93-.25a4.84,4.84,0,0,0,1.05-2.1c0-.05-.07-.09-.15-.14s-.16-.09-.16-.13a7.71,7.71,0,0,1,.45-1.66,3.18,3.18,0,0,0,.48-.51c.07-.45.69-1.18.7-1.69a2,2,0,0,1-.41-2,2.43,2.43,0,0,0,.08-1c-.38-.55-.26-.72-.68-1.12s-.41-.63-.31-.87a6.14,6.14,0,0,0,.22-1c-.07-.79-.31-.7-.6-1.22-.06-.11-.47-.22-.52-.3s-.17-.07-.12-.24a.72.72,0,0,1,.6-.47.82.82,0,0,0,.47-.76,3.7,3.7,0,0,1,0-1.25c.05-.28.1-.39,0-.49-.39-.28-.7-.38-.81-.55s-.25-1-.59-1.09c-.68-.35-.63-.33-.75-.32a1,1,0,0,1-.37,0l-.21,0c-.68,0-.87.63-1.26,1.39-.21.41-.91.64-.91,1.14a4,4,0,0,1,0,.41,1.43,1.43,0,0,0,.26,1,1.13,1.13,0,0,1,0,.54,3.11,3.11,0,0,0,0,.33,1.62,1.62,0,0,1-.22,1c-.3.28-.17.76,0,1.27s.31,1.14-.12,1.51a4.56,4.56,0,0,0-1.55,3.56c.06.07.24.61.34.8" style="fill:none"/></clipPath><linearGradient id="linear-gradient-8" x1="168.03" y1="825.6" x2="174.79" y2="825.6" gradientTransform="matrix(1.16, 0, 0, -1.16, -90.64, 1077.82)" gradientUnits="userSpaceOnUse"><stop offset="0" stop-color="#ffeba8"/><stop offset="0.15" stop-color="#fdd283"/><stop offset="0.32" stop-color="#faba5f"/><stop offset="0.49" stop-color="#f8a642"/><stop offset="0.66" stop-color="#f7992e"/><stop offset="0.83" stop-color="#f69122"/><stop offset="1" stop-color="#f68e1e"/></linearGradient></defs><title>Luton Town FC logo - Brandlogos.net</title><path d="M440,387.08a5.13,5.13,0,0,0-2.43-2.9,3.27,3.27,0,0,0-2.79-.16,4.05,4.05,0,0,0-2.68,2.56,2.93,2.93,0,0,0-.11.82,31.63,31.63,0,0,1-5.21-12.29c-1.69-8,.94-11.43,2-12.49a3.77,3.77,0,0,0,1.75,1.39,4.92,4.92,0,0,0,4-.48c1.28-.64,2.11-3.59,1.21-5.49a19.63,19.63,0,0,0-3.2-3.88,17.85,17.85,0,0,1-1.62-1.82,19.35,19.35,0,0,1-1.23-3.1c-.12-.36-.24-.71-.35-1a6.63,6.63,0,0,0-3.4-3.59,3.84,3.84,0,0,0-3.3.23,3.79,3.79,0,0,0-1.91,4.84,10.33,10.33,0,0,1-2.89-.38,16.76,16.76,0,0,1-3.6-1.6,28.87,28.87,0,0,0-12.87-4c-7.72-.42-10.36,2.33-11.35,3.37l-.21.22a37,37,0,0,1-5.4.14h-.94a40.49,40.49,0,0,1-5.35-.12s-.16-.15-.25-.24c-1-1-3.62-3.78-11.35-3.37a28.9,28.9,0,0,0-12.88,4,16.72,16.72,0,0,1-3.6,1.6,10.33,10.33,0,0,1-2.89.38,3.8,3.8,0,0,0-1.91-4.84,3.84,3.84,0,0,0-3.3-.23,6.63,6.63,0,0,0-3.4,3.59c-.11.32-.23.67-.36,1a8.29,8.29,0,0,1-2.85,4.91,19.4,19.4,0,0,0-3.2,3.88c-.9,1.91-.07,4.86,1.2,5.49a4.92,4.92,0,0,0,4,.48,3.78,3.78,0,0,0,1.76-1.39c1.08,1,3.72,4.49,2,12.5a31.63,31.63,0,0,1-5.21,12.29,2.92,2.92,0,0,0-.12-.82,4.05,4.05,0,0,0-2.68-2.56,3.28,3.28,0,0,0-2.8.16,5.12,5.12,0,0,0-2.42,2.9c-.62,2.66.54,5.1,3.46,7.26l.14.11c2.22,1.63,5.94,4.37,5.39,15.14-.05.93-.11,1.82-.16,2.68-.53,9.71-.86,15.56,5.27,22.24s16,5,18.19,4.56c.63,1.34,2.8,5.64,6,8.06a26,26,0,0,0,7.2,3.39c2.95,1,5.51,1.91,6.58,4,0,.1,0,.28-.07.43-.22,1.16-.61,3.32.59,4.75a4,4,0,0,0,3.26,1.25h.3a4,4,0,0,0,3.26-1.25c1.2-1.43.8-3.59.59-4.74,0-.16-.06-.33-.07-.43,1.07-2.07,3.64-3,6.58-4a26,26,0,0,0,7.2-3.39c3.22-2.42,5.4-6.72,6-8.06,2.23.44,12.18,2,18.19-4.56s5.81-12.53,5.27-22.24q-.07-1.29-.14-2.68c-.55-10.78,3.16-13.52,5.39-15.14l.14-.11c2.92-2.16,4.08-4.6,3.46-7.26" transform="translate(-275.53 -276.04)" style="fill:#fff"/><g style="clip-path:url(#clip-path)"><rect x="89.51" y="37.97" width="36.68" height="17.67" style="fill:url(#linear-gradient)"/></g><g style="clip-path:url(#clip-path-2)"><rect x="364.38" y="313.74" width="40.38" height="26.88" transform="translate(-330.9 -196.65) rotate(-11)" style="fill:url(#linear-gradient-2)"/></g><path d="M426,324.11c0-1.24-2.32-2.06-3.08-2.75.88-1,2.18-1.29,3.28-1.94-.24-1.57-3.22-1.07-4.35-1.11-3.26-.1-6.54.16-9.79.26a34.79,34.79,0,0,1,4.13-1.84c.55-.22,2.87-.78,3.07-1.51.45-1.63-3.83-1.33-4.63-1.4-.09-.78,1.07-2.49-.43-2.57-.8,0-2.08,1.2-2.75,1.53a42.82,42.82,0,0,0-4.39,2.44c-1.11.74-1.2,1-2.47.57a7.14,7.14,0,0,1-2.66-1.12,10.48,10.48,0,0,0-6-3.14c-10.39-1.93-21.82.34-29.49,8.15a6.42,6.42,0,0,0-1.78,2.56c-.2.81.4,2.05.13,2.74-.13.3-1.49.95-1.79,1.17a14.4,14.4,0,0,0-1.47,1.25,10,10,0,0,0-2.2,3.14,7.65,7.65,0,0,0,.4,7.47c1.47,2,4.55,2.82,6.86,3.37a54.16,54.16,0,0,0,15.23.94c7.44-.8,12-2.12,15.51-3.75,5.1-2.32,11.3-5.31,14.35-10.2.21-.34.42-.72.62-1.05a4.39,4.39,0,0,0,.68-1.14,5.12,5.12,0,0,0,.2-1.43c0-.2,0-.39,0-.58l1.47-.09c1-.05,1.91-.13,2.87-.11,2.85,0,5.68.53,8.52.6a1.61,1.61,0,0,1-.07-.44h0M404,318.8c1.92-1,3.5-2.39,5.45-3.49,1.43-.8,2.81-1.55,4.16-2.32.15.87-.2,1.3.43,1.84s2.26.28,3.07.34c-2.26,1.13-4.64,2-6.87,3.2-2.39,1.3-4.54,3-6.84,4.39a11.16,11.16,0,0,1-.4-2.37c.11-1,.52-.7,1-1.59.43-.23-.24.43,0,0m-2.41-.84c.2,2.13,1.21,4.3,1.06,6.44-.13,1.87-1.68,3.45-3.07,4.58a29.93,29.93,0,0,1-11.75,5.47c-4.66.95-9.18,1.91-13.92.85-1.89-.41-4.49-1.19-5.8-2.71s-1.57-4.92-1.93-6.78c5.84,4,13,3.39,19.64,2,5.81-1.23,13.42-4.64,15.55-10.81a2.47,2.47,0,0,1,.22,1m10.32,7.68c-1,2.74-3.62,4.87-5.87,6.58a33.62,33.62,0,0,1-8.16,4.83c-6,2.34-11.65,4-18.1,4.26a43.33,43.33,0,0,1-7.83-.48c-2.94-.43-5.74-.46-8.52-1.67-2.31-1-4-3-3.67-5.74.41-3,2.8-5.79,5.36-7.27.6,2.37,1,6.06,2.85,7.85,1.49,1.48,4.47,2.37,6.49,2.73,5.91,1.06,11.89-.33,17.42-2.27a28.84,28.84,0,0,0,6.86-3.51c1.74-1.2,4-2.82,4.7-4.87a4.81,4.81,0,0,0,.25-.89c0-.8-.42-.78.45-1.11a8.93,8.93,0,0,1,1.84.07c1.25,0,2.49-.11,3.74-.09s2.85-.25,2.21,1.56c-.1.26.15-.43,0,0m9-2.76a131.25,131.25,0,0,0-15.81.1c4.34-4.88,12.15-3.64,18-3.29-.6.62-1.55,1-1.19,2,.23.65,1.14.86,1.59,1.3-.86,0-1.71-.06-2.56-.13h0" transform="translate(-275.53 -276.04)" style="fill:#231f20"/><path d="M413.73,312.7c.24.41,0,1.32.14,1.82,1,.6,2.7.24,3.88.53a13.83,13.83,0,0,1-2.16,1,54.22,54.22,0,0,0-6.31,3.12c-2.11,1.24-4,2.71-6.08,4-.14-1.21-.45-2.27-.53-3.54.73-.46,1.56-1.27,2.87-2.2,2.8-1.76,8.18-4.63,8.18-4.69" transform="translate(-275.53 -276.04)" style="fill:#f68e1e;fill-rule:evenodd"/><g style="clip-path:url(#clip-path-3)"><rect x="129.15" y="43.24" width="19.15" height="4.01" style="fill:url(#linear-gradient-3)"/></g><g style="clip-path:url(#clip-path-4)"><rect x="83.94" y="35.81" width="53.02" height="29.84" style="fill:url(#linear-gradient-4)"/></g><polygon points="35.98 66.85 15.2 52.99 17.84 49.02 35.12 60.53 39.38 54.15 42.89 56.49 35.98 66.85" style="fill:#002d62"/><path d="M305.94,309.26l12.19,12.52c1.67,1.71,3.28,1.88,4.94.26s1.55-3.26-.11-5l-12.19-12.51,3.42-3.33,12.22,12.54c3.84,3.94,3.13,7.87-.39,11.3s-7.44,4-11.29.07l-12.21-12.54Z" transform="translate(-275.53 -276.04)" style="fill:#002d62"/><polygon points="57.8 12.35 60.03 15.93 55.31 18.89 66.31 36.49 62.26 39.01 51.26 21.41 46.54 24.36 44.3 20.78 57.8 12.35" style="fill:#002d62"/><path d="M341.63,293.22c-2.14-5.78.14-9,4.49-10.6s8.16-.66,10.31,5.11l3.1,8.37c2.14,5.77-.14,9-4.48,10.59s-8.17.67-10.31-5.11Zm7.8,7.29c1,2.6,2.37,2.89,4.14,2.23s2.66-1.8,1.7-4.4l-3.53-9.53c-1-2.6-2.37-2.89-4.16-2.23s-2.65,1.8-1.69,4.39Z" transform="translate(-275.53 -276.04)" style="fill:#002d62"/><polygon points="89.99 26.77 86.95 1.98 92.14 1.34 100.53 15.24 100.6 15.23 98.79 0.53 103.13 0 106.16 24.79 101.63 25.35 92.42 10.23 92.35 10.24 94.31 26.25 89.99 26.77" style="fill:#002d62"/><polygon points="136.76 3.67 135.96 7.82 130.49 6.76 126.54 27.14 121.86 26.23 125.8 5.86 120.33 4.79 121.14 0.65 136.76 3.67" style="fill:#002d62"/><path d="M415.1,288.91c2.37-5.69,6.23-6.47,10.5-4.69S432,289.3,429.66,295l-3.44,8.24c-2.37,5.68-6.22,6.47-10.5,4.68s-6.43-5.08-4.05-10.76Zm.73,10.65c-1.06,2.55-.24,3.72,1.51,4.45s3.16.49,4.24-2.05l3.91-9.39c1.07-2.56.24-3.72-1.51-4.45s-3.17-.5-4.24,2Z" transform="translate(-275.53 -276.04)" style="fill:#002d62"/><polygon points="164.94 15.19 168.41 17.95 160.87 32.81 160.92 32.86 173.76 22.21 177.36 25.07 169.91 40.01 169.96 40.05 182.73 29.34 186.22 32.12 166.39 48.26 162.78 45.4 170.7 29.85 170.64 29.8 157.05 40.83 153.48 37.98 164.94 15.19" style="fill:#002d62"/><polygon points="171.75 53.95 192.2 39.6 195.2 43.87 186.89 57.82 186.93 57.87 199.05 49.37 201.56 52.94 181.11 67.29 178.49 63.55 187.49 48.31 187.45 48.25 174.26 57.51 171.75 53.95" style="fill:#002d62"/><polygon points="14.24 160.5 35.42 147.24 41.77 157.39 38.6 159.38 34.53 152.86 29.07 156.28 32.12 161.15 28.95 163.13 25.9 158.26 16.52 164.13 14.24 160.5" style="fill:#002d62"/><path d="M314.51,439.74c2.58-2.41,6.1-2.84,9.16.46s2.37,6.77-.22,9.16L314,458.13c-2.59,2.4-6.1,2.84-9.16-.46s-2.37-6.77.22-9.18Zm-6.43,11.83c-1.37,1.27-1.65,2.29-.47,3.55s2.21,1.06,3.58-.21l9.27-8.62c1.37-1.27,1.66-2.29.48-3.55s-2.22-1.07-3.58.21Z" transform="translate(-275.53 -276.04)" style="fill:#002d62"/><path d="M327.06,452.53c2.06-2.87,5.42-4,9.08-1.38s3.68,6.16,1.62,9l-7.49,10.46c-2.05,2.87-5.41,4-9.07,1.39s-3.68-6.16-1.62-9Zm-3.93,12.88c-1.09,1.51-1.16,2.57.24,3.58s2.39.59,3.47-.93l7.37-10.3c1.08-1.52,1.16-2.57-.25-3.58s-2.39-.59-3.47.93Z" transform="translate(-275.53 -276.04)" style="fill:#002d62"/><polygon points="69.43 185.25 65.68 183.47 67.28 180.1 78.66 185.5 77.06 188.88 73.31 187.1 64.2 206.28 60.32 204.44 69.43 185.25" style="fill:#002d62"/><path d="M356.24,462.31l6.15,1.64c4.45,1.19,5.82,4,4.72,8.1-.55,2.07-2,4-4.22,4.28,1.87,1.49,2.66,3.49,1.83,6.61-1.05,4-3.63,6.51-8.35,5.26l-6.56-1.74Zm-1.37,21.84,1.74.46c2.2.59,3.35-.47,4-2.91s0-4-2.43-4.62l-1.34-.35Zm2.88-10.83,1.5.4c1.57.42,3.06-.33,3.6-2.34.6-2.24,0-3.64-1.8-4.13l-1.57-.42Z" transform="translate(-275.53 -276.04)" style="fill:#002d62"/><path d="M370.76,491l-4.14-.39,6.88-24.45,5.31.49L381.1,492l-4.13-.39-.25-5.58-4.68-.43ZM373,481.9l3.45.32-.7-10.83h-.07Z" transform="translate(-275.53 -276.04)" style="fill:#002d62"/><polygon points="111.11 215.78 109.33 190.86 113.62 190.55 115.12 211.75 121.85 211.27 122.11 215 111.11 215.78" style="fill:#002d62"/><polygon points="127.39 214.11 121.86 189.75 126.05 188.8 130.75 209.52 137.33 208.02 138.16 211.67 127.39 214.11" style="fill:#002d62"/><path d="M427.5,463.93l-.89-1.72c-1-1.87-2.25-2.22-3.23-1.72-1.54.8-1.62,1.86-.75,3.51l5.85,11.23c.86,1.66,1.77,2.2,3.3,1.4s1.43-1.76.67-3.2l-1.39-2.67,3.8-2,1.32,2.55c1.64,3.14,1.12,6.64-2.68,8.62-4,2.08-7.16.49-8.79-2.64l-5.94-11.41c-1.64-3.14-1.12-6.64,2.87-8.72,3.8-2,7.08-.18,8.81,3.14l.84,1.62Z" transform="translate(-275.53 -276.04)" style="fill:#002d62"/><polygon points="170.01 196.33 154.74 176.56 158.14 173.94 171.12 190.75 176.46 186.62 178.74 189.58 170.01 196.33" style="fill:#002d62"/><path d="M439.34,445.6l2.94-3.13L456,455.39c1.33,1.26,2.48,1.34,3.55.21s.91-2.28-.43-3.53l-13.73-12.92,2.93-3.13L462,448.82c3.13,2.94,3.14,6.37.34,9.33s-6.22,3.18-9.34.25Z" transform="translate(-275.53 -276.04)" style="fill:#002d62"/><path d="M450.52,433.18l3.35-5.42c2.42-3.91,5.49-4.41,9.12-2.18,1.82,1.12,3.26,3.07,2.89,5.27,2-1.34,4.11-1.52,6.84.16,3.51,2.17,5.2,5.37,2.64,9.52l-3.56,5.77Zm11,1.72.82-1.32c.85-1.39.57-3-1.2-4.12-2-1.22-3.48-1.09-4.47.53l-.85,1.39ZM471,440.8l.95-1.53c1.2-1.95.51-3.35-1.64-4.67s-3.78-1.2-5.12,1l-.72,1.18Z" transform="translate(-275.53 -276.04)" style="fill:#002d62"/><path d="M275.53,388.88c.89,0,1.44-.12,1.44-1.46v-8.24c0-1.33-.55-1.46-1.44-1.46v-.36H283l.11,2.18h-.41c-.2-1.09-.75-1.48-1.93-1.48h-1.45c-.86,0-.91.2-.91,1.49v3.12h2.14c1.12,0,1.51-.26,1.51-1.49h.34v3.69h-.34c0-1-.4-1.5-1.51-1.5h-2.14V387c0,1.39.08,1.5.91,1.5H281a1.73,1.73,0,0,0,2-1.66h.41l-.11,2.36h-7.76Z" transform="translate(-275.53 -276.04)" style="fill:#231f20"/><path d="M291.44,379.93a2.37,2.37,0,0,0-2.59-2.05,2,2,0,0,0-2.09,1.95c0,1.59,2,2.11,3.42,3s2.18,1.55,2.18,3.25c0,2.26-1.82,3.33-4.1,3.33a16.93,16.93,0,0,1-2.85-.34l-.11-2.51h.41a2.47,2.47,0,0,0,2.69,2,2.26,2.26,0,0,0,2.41-2.24c0-1.93-2.76-2.51-4.3-3.78a2.74,2.74,0,0,1-1.08-2.39c0-2.14,1.65-3,3.73-3a11.24,11.24,0,0,1,2.57.3l.11,2.45Z" transform="translate(-275.53 -276.04)" style="fill:#231f20"/><path d="M295.09,388.88c1,0,1.59-.12,1.59-1.46v-9.37h-1c-1.69,0-1.94.73-2.1,1.73h-.43l.12-2.43h8.31l.11,2.43h-.41c-.1-1.12-.59-1.73-2.22-1.73h-.9v9.37c0,1.34.59,1.46,1.59,1.46v.36h-4.66Z" transform="translate(-275.53 -276.04)" style="fill:#231f20"/><path d="M461.15,388.93c1.37,0,1.61-.23,1.61-1.93v-6c0-.93-.14-1.36-.83-1.36a2.59,2.59,0,0,0-1,.26v-.31l2.57-1.51h.51V387c0,1.68.38,1.93,1.36,1.93v.3h-4.26Z" transform="translate(-275.53 -276.04)" style="fill:#231f20"/><path d="M468.06,386.31a2.46,2.46,0,0,1,2-2.77v0a2.29,2.29,0,0,1-1.81-2.53,2.85,2.85,0,0,1,3.1-2.85c1.86,0,3.1,1,3.1,2.85a2.36,2.36,0,0,1-1.82,2.53v0a2.61,2.61,0,0,1,2,2.77c0,2.24-1.32,3.1-3.3,3.1s-3.3-1.13-3.3-3.1m3.3,2.35c1.22,0,1.83-1,1.83-2.35s-.61-2.39-1.83-2.39-1.83,1.05-1.83,2.39.57,2.35,1.83,2.35m0-5.49c1.21,0,1.62-1,1.62-2.2s-.49-2.1-1.62-2.1-1.62,1-1.62,2.1.45,2.2,1.62,2.2" transform="translate(-275.53 -276.04)" style="fill:#231f20"/><path d="M477,386.31a2.46,2.46,0,0,1,2-2.77v0a2.29,2.29,0,0,1-1.81-2.53,2.85,2.85,0,0,1,3.1-2.85c1.86,0,3.1,1,3.1,2.85a2.36,2.36,0,0,1-1.83,2.53v0a2.61,2.61,0,0,1,2,2.77c0,2.24-1.33,3.1-3.3,3.1s-3.3-1.13-3.3-3.1m3.3,2.35c1.22,0,1.83-1,1.83-2.35s-.61-2.39-1.83-2.39-1.82,1.05-1.82,2.39.57,2.35,1.82,2.35m0-5.49c1.21,0,1.62-1,1.62-2.2s-.49-2.1-1.62-2.1-1.62,1-1.62,2.1.45,2.2,1.62,2.2" transform="translate(-275.53 -276.04)" style="fill:#231f20"/><path d="M487.54,383.17a3.68,3.68,0,0,1,2-.61,2.92,2.92,0,0,1,2.93,3.11c0,2.56-2,3.74-4.18,3.74a9.59,9.59,0,0,1-2.38-.34v-.74a4.58,4.58,0,0,0,1.8.32,3,3,0,0,0,3.28-3.1,2.08,2.08,0,0,0-2-2.14,2.2,2.2,0,0,0-1.78.94h-.93l.3-6.06h5.17v.85h-4Z" transform="translate(-275.53 -276.04)" style="fill:#231f20"/><path d="M340.44,384.68l35.45-.16V347.31s-5.1-2.68-8.87-.72-11.61,5.14-18.72,4.6c-4.26-.33-4.76-1.32-4.76-1.32l-5.91,10.18s7.88,4.93,8.21,8c0,0,2.62,5.74-.17,10.18a27.61,27.61,0,0,1-5.23,6.41" transform="translate(-275.53 -276.04)" style="fill:#f68e1e;fill-rule:evenodd"/><path d="M428.17,384.68l-36-.16V346.26s5.09-1.64,8.87.33,11.62,5.14,18.73,4.6c4.26-.33,4.76-1.32,4.76-1.32l5.91,10.18s-7.89,4.93-8.22,8c0,0-2.62,5.74.17,10.18a22.14,22.14,0,0,0,5.81,6.41" transform="translate(-275.53 -276.04)" style="fill:#002d62;fill-rule:evenodd"/><path d="M375.64,448.42V401l-38.74-.16a49.45,49.45,0,0,1,3.2,16c.16,8.71,1.26,15.55,14.45,18.56,9.35,2.14,21.1,13,21.1,13" transform="translate(-275.53 -276.04)" style="fill:#002d62;fill-rule:evenodd"/><path d="M392.22,447V401l38.88-.16a47.47,47.47,0,0,0-3.32,16c-.17,8.7-1.27,15.54-14.46,18.55C404,437.56,392.22,447,392.22,447" transform="translate(-275.53 -276.04)" style="fill:#f68e1e;fill-rule:evenodd"/><path d="M408.21,359.93c1.16.07,2.56,1.35,2.13,2.57a4.32,4.32,0,0,1,2.39,1,2.7,2.7,0,0,1,.75,2.57c.8.79,2.45,1.48,2.18,3.24a1.68,1.68,0,0,1-.62.93c.81.68,1.54,2.37.66,3.46a2.92,2.92,0,0,1,.4,2.12c-.13.47-.64.89-.53,1.33-1.05.7-2.57.69-4.21,1a28.94,28.94,0,0,1-3.41.57,52.63,52.63,0,0,1-7.31,0c-.45,0-.91-.16-1.32-.22a18.44,18.44,0,0,1-2.53-.4,7.65,7.65,0,0,1-1.51-1c-.34-.26-.72-.39-.89-.8a2.47,2.47,0,0,1,.62-2.62c-1-1.19,0-2.87.93-3.46-.45-.3-.39-1.59-.14-2.18.39-.9,1.48-1.45,2.08-1.9-.55-2.07,1.53-3.66,3.19-4,0-1.39,1.3-2.12,2.57-2.53.11-.14.13-.37.22-.53a4.36,4.36,0,0,1,2.16-.76,4.21,4.21,0,0,1,1.47.67c.07.07.09.22.18.3s.56.25.53.62" transform="translate(-275.53 -276.04)" style="fill:#231f20;fill-rule:evenodd"/><path d="M405.73,359.09c.22,0,.37.11.44,0-.12,0-.38-.09-.44,0" transform="translate(-275.53 -276.04)" style="fill:#ffeca8;fill-rule:evenodd"/><g style="clip-path:url(#clip-path-5)"><rect x="119.46" y="84.21" width="20.78" height="16.66" style="fill:url(#linear-gradient-5)"/></g><g style="clip-path:url(#clip-path-6)"><rect x="121.12" y="99.8" width="16.13" height="2.6" style="fill:url(#linear-gradient-6)"/></g><path d="M407.46,362.64a8.53,8.53,0,0,0-3.41,0c-.31.06-.72,0-.8.31.16.28.51.1.75.09.7,0,1.37,0,2,0s1.49.32,2,.09c0-.32-.35-.41-.61-.49" transform="translate(-275.53 -276.04)" style="fill:#231f20;fill-rule:evenodd"/><path d="M410.43,365.65c.09.16.16.34.35.4s.23-.12.22-.31-.43-.3-.57-.09" transform="translate(-275.53 -276.04)" style="fill:#231f20;fill-rule:evenodd"/><path d="M411.41,366h.22v-.26h-.26c0,.11,0,.21,0,.26" transform="translate(-275.53 -276.04)" style="fill:#231f20;fill-rule:evenodd"/><path d="M409.72,366a6.68,6.68,0,0,0-2.13-.18c.38.15,1.69.66,2.13.18" transform="translate(-275.53 -276.04)" style="fill:#231f20;fill-rule:evenodd"/><path d="M399.93,366.23c.51.3,1.37-.12,2-.18,0-.18.26-.12.35-.22-.78.13-1.82,0-2.3.4" transform="translate(-275.53 -276.04)" style="fill:#231f20;fill-rule:evenodd"/><path d="M412.83,368.88a3.31,3.31,0,0,0-1.28-.22c.07.38,1,.6,1.28.22" transform="translate(-275.53 -276.04)" style="fill:#231f20;fill-rule:evenodd"/><path d="M413.13,369.1a.57.57,0,0,0,.53.44c0-.13.09-.14.09-.26a.49.49,0,0,0-.62-.18" transform="translate(-275.53 -276.04)" style="fill:#231f20;fill-rule:evenodd"/><path d="M404.45,369.15c-.7,0-1.57,0-2,0a17.89,17.89,0,0,0-3.68.53c-.28.07-.68.07-.8.35a10.92,10.92,0,0,0,1.87-.31,37,37,0,0,1,5-.18c.26,0,.62.13.8-.09-.07-.47-.72-.3-1.11-.31" transform="translate(-275.53 -276.04)" style="fill:#231f20;fill-rule:evenodd"/><path d="M414,370.3a9.91,9.91,0,0,0-3.95-.66c1.32.37,2.77.63,4,1.06,0-.21-.06-.27-.09-.4" transform="translate(-275.53 -276.04)" style="fill:#231f20;fill-rule:evenodd"/><path d="M413.35,372.47c-.18-.29-.61-.32-1.06-.35.08.34.75.53,1.06.35" transform="translate(-275.53 -276.04)" style="fill:#231f20;fill-rule:evenodd"/><path d="M402.23,372.21a23.36,23.36,0,0,0-3.68.57c-.37.09-.93.06-1,.49a26.83,26.83,0,0,1,5.09-.66,16.36,16.36,0,0,0,1.82,0c-.12-.66-1.7-.44-2.26-.4" transform="translate(-275.53 -276.04)" style="fill:#231f20;fill-rule:evenodd"/><path d="M410.52,372.74c1,.17,1.94.4,2.88.62.1.16.59.38.66,0a4.49,4.49,0,0,0-1.73-.53l-1.95-.36s0,0,0,0a.24.24,0,0,1,.18.18" transform="translate(-275.53 -276.04)" style="fill:#231f20;fill-rule:evenodd"/><path d="M414.15,372.87c0-.3-.25-.31-.53-.31a.36.36,0,0,0,.53.31" transform="translate(-275.53 -276.04)" style="fill:#231f20;fill-rule:evenodd"/><path d="M413.67,376a.83.83,0,0,0,.57.4c0-.11.11-.16.14-.26-.29-.64-1.3-.94-2.3-1,.31.52,1.06.59,1.59.89" transform="translate(-275.53 -276.04)" style="fill:#231f20;fill-rule:evenodd"/><path d="M359.18,403.84c.09.26.45.24.65.39a2.24,2.24,0,0,1,2.95-.65c.93.57,2.91,2.82,2.21,4.37-.16.33-.55.58-.52.82.06.45.77.21,1.12.43s.58,1.2.52,2.08a5.41,5.41,0,0,1-1.25,3.33,2.09,2.09,0,0,1-1,.34c-.4,0-.55-.41-1-.3s-.84,1.2-1.38,1.51a6.76,6.76,0,0,1-2.21.6,8.92,8.92,0,0,1-1.9-.13,4.22,4.22,0,0,1-.78,0,1.53,1.53,0,0,1-.61-2.2c-.11-.36-.54-.22-.86-.3s-.43-.36-.64-.39-.73.36-1.3.18c-.81-.27-1.45-1.57-1.56-2.73-.17-1.76.49-3.37,2.34-3.12.1-.28-.06-.44,0-.65-.27-.24-.78-.25-1.08-.47a3.26,3.26,0,0,1,.7-2,6.55,6.55,0,0,1,1.9-1.59,5.23,5.23,0,0,1,1-.39c.11,0,.26,0,.4,0a4.77,4.77,0,0,1,1.81-.22.92.92,0,0,1,.56,1.08m-2.42.56c-.46.43-1.07.7-1.52,1.17a.69.69,0,0,0-.21.48,3.44,3.44,0,0,1,1.38-1.09c0,.12.08.19.22.18s.49-.21.47-.56c0-.12-.21-.14-.34-.18m4.93.65c.26.6,1.24.48,1.12,1.48.19.18.28,0,.43.13.11-1-.84-1.47-1.55-1.61M360,408.34a3,3,0,0,1-1.12.43c.07-.2.1-.32-.18-.34-.11.14.16.26,0,.34-.74-.07-1.49-.87-2-.47-.05.7.41,1.07.61,1.64-.35.47-1,.65-1,1.47a1.27,1.27,0,0,0,.39.13c.59-.66,1.76-.05,2,.56-.11.43.11.95.48.91.2-.19.14-.52.09-.78a2,2,0,0,1,.86-1.12,3.49,3.49,0,0,0,.53-.52c.22-.2.74-.26.78-.51s-.35-.44-.51-.7a.93.93,0,0,1,.08-1.25c-.3-.74-.59,0-.91.22M354,412.88c0-.12.21-.05.18-.22s-.29-.2-.43-.3a3,3,0,0,1-.18-1.34c-.15-.07,0,.15-.13.13,0-.51.1-1.2-.13-1.51-.22,1.06-.65,3.09.69,3.24m10.65-2.59c0,.57.06,1.22,0,1.81,0,.2-.2.39,0,.56.66-.17.54-2.2.13-2.51h-.08Zm-4.55,1.47c.12,0,.1.14.22.13.32-.06.26-.49.57-.56-.18-.59-.64.19-.79.43m-4.45,1.74c-.15.51.56.14,0,0m2.64,1.47a.46.46,0,0,0-.43,0,.56.56,0,0,0,.34.39,4,4,0,0,0,2-.48c-.34-.46-1.37,0-1.9,0" transform="translate(-275.53 -276.04)" style="fill:#fff;fill-rule:evenodd"/><path d="M357.1,404.58c0,.35-.28.41-.47.56s-.21,0-.22-.17A3.5,3.5,0,0,0,355,406a.66.66,0,0,1,.22-.47c.45-.47,1.07-.74,1.52-1.17.13,0,.29.05.34.18" transform="translate(-275.53 -276.04)" style="fill:#231f20;fill-rule:evenodd"/><path d="M363.25,406.66c-.16-.11-.24,0-.43-.13.13-1-.86-.87-1.12-1.47.71.15,1.67.63,1.55,1.6" transform="translate(-275.53 -276.04)" style="fill:#231f20;fill-rule:evenodd"/><path d="M361,408.13a.94.94,0,0,0-.09,1.26c.16.25.54.47.51.69s-.55.32-.78.51a4.06,4.06,0,0,1-.51.52,2.09,2.09,0,0,0-.86,1.13c.06.26.11.59-.09.78-.36,0-.59-.47-.47-.91-.23-.61-1.41-1.23-2-.56a1.27,1.27,0,0,1-.39-.13c0-.83.64-1,1-1.47-.2-.57-.66-.93-.6-1.64.54-.4,1.29.4,2,.47.2-.07-.07-.21,0-.34.27,0,.24.14.17.34a2.91,2.91,0,0,0,1.12-.43c.31-.26.61-1,.91-.22m-1.17,1.3c-.31-1-2.37.18-1.78,1.08.27,0,.38.2.61.26.62-.22,1.39-.62,1.17-1.34" transform="translate(-275.53 -276.04)" style="fill:#231f20;fill-rule:evenodd"/><path d="M358.62,410.76c-.23-.05-.34-.23-.6-.26-.59-.9,1.46-2.12,1.77-1.08.22.72-.55,1.12-1.17,1.34" transform="translate(-275.53 -276.04)" style="fill:#ffeca8;fill-rule:evenodd"/><path d="M353.3,409.64c.23.32.09,1,.13,1.51.1,0,0-.2.13-.13a2.9,2.9,0,0,0,.18,1.34c.14.1.4.09.43.3s-.17.09-.18.22c-1.33-.15-.92-2.18-.69-3.25" transform="translate(-275.53 -276.04)" style="fill:#231f20;fill-rule:evenodd"/><path d="M364.63,410.16h.09c.41.3.53,2.35-.13,2.51-.16-.18,0-.36,0-.57.07-.59,0-1.24,0-1.82Z" transform="translate(-275.53 -276.04)" style="fill:#231f20;fill-rule:evenodd"/><path d="M360.87,411.33c-.3.07-.24.5-.56.56-.12,0-.1-.13-.22-.13.14-.24.59-1,.78-.43" transform="translate(-275.53 -276.04)" style="fill:#231f20;fill-rule:evenodd"/><path d="M355.63,413.49c.56.14-.15.51,0,0" transform="translate(-275.53 -276.04)" style="fill:#231f20;fill-rule:evenodd"/><path d="M369.52,416.91c0,.15.19.09.21.22a3,3,0,0,1-.39.91c0,.09.05.2.18.22a20.08,20.08,0,0,1-1.26,2c-.05.19.12.17.09.34a15.76,15.76,0,0,1-1.3,1.3c-.1.12-.14.28-.26.39s-.33.15-.47.26-.21.26-.35.34c-.55.34-1.22.41-1.68.92a9.57,9.57,0,0,1,.34-2c-.45.14-.37.8-.56,1.21-.48-.1-.54-.68-.66-1.12a7.08,7.08,0,0,1-.26-1.47.69.69,0,0,0,.43-.09,3.52,3.52,0,0,1,.31-1.87c.14,0,.14.15.26.18.46-.3.41-.92.69-1.34s.65-.58.87-.95c.16,0,.21-.05.34,0a5.06,5.06,0,0,1,3.72-2.21.07.07,0,0,1,.09,0c-.18.67.11,1.27,0,1.82-.05.39-.38.64-.39,1m-1.91,0a7.83,7.83,0,0,0-1.26,1.95c-.15.19-.54.43-.34.7.43,0,.59-.58.78-.91a6.4,6.4,0,0,1,.7-1.08c.18-.2.48-.24.39-.6a.35.35,0,0,0-.26,0m-2.25,4.41a2.63,2.63,0,0,0,0-1c.05.06.2,0,.26.09.11-.16.35-.33.18-.52s-.28.2-.48.26c0-.14,0-.34,0-.43-.16,0-.11-.18-.3-.13,0,.49-.45,1.75.3,1.77" transform="translate(-275.53 -276.04)" style="fill:#8bc53f;fill-rule:evenodd"/><path d="M360.18,414.92a4.07,4.07,0,0,1-2,.48.56.56,0,0,1-.34-.39.44.44,0,0,1,.43,0c.53,0,1.56-.51,1.91,0" transform="translate(-275.53 -276.04)" style="fill:#231f20;fill-rule:evenodd"/><path d="M367.88,416.91c.09.36-.22.41-.39.61a6.5,6.5,0,0,0-.7,1.07c-.19.34-.34.88-.78.91-.19-.26.2-.5.35-.69a7.94,7.94,0,0,1,1.26-2,.41.41,0,0,1,.26,0" transform="translate(-275.53 -276.04)" style="fill:#231f20;fill-rule:evenodd"/><path d="M358.49,417.6c.12.69.18,1.43.26,2.17a.83.83,0,0,1-.26-.61c-.54-.36-.48-1.33-1.34-1.38,0-.19-.19-.22-.22-.39a3.43,3.43,0,0,1,1.55.22" transform="translate(-275.53 -276.04)" style="fill:#002d62;fill-rule:evenodd"/><path d="M360.13,417.39a11.58,11.58,0,0,0,1.43,4.33c.32.52.77,1,1.13,1.48s.68,1,1,1.51A16.19,16.19,0,0,0,366,427c1.36,1.18,2.9,2.18,3.8,3.85a11,11,0,0,0-.43,1.69c-.39-.5-.57-1.07-.91-1.55a14.41,14.41,0,0,0-2.37-2.26,2.47,2.47,0,0,0-.14-.3,16.22,16.22,0,0,1-2.68-2.25c0-.1-.07-.16,0-.3-.48-.26-.59-.86-.91-1.25s-.68-.43-.7-.87c-.55-.32-.75-1-1.12-1.6a11.72,11.72,0,0,1-.69-1.17,16.48,16.48,0,0,1-.74-3.37,5.24,5.24,0,0,1,1.08-.18" transform="translate(-275.53 -276.04)" style="fill:#8bc53f;fill-rule:evenodd"/><path d="M354,418.56c0,.26-.42.1-.39-.09s.31,0,.39.09" transform="translate(-275.53 -276.04)" style="fill:#231f20;fill-rule:evenodd"/><path d="M354.29,418.77c.22,0,.28.09.43.13,0,.18-.13.25-.34.22,0-.14-.1-.19-.09-.34" transform="translate(-275.53 -276.04)" style="fill:#231f20;fill-rule:evenodd"/><path d="M354.77,419.07c.21.08.5.08.65.22,0,.19-.22.25-.43.26a.53.53,0,0,1-.22-.47" transform="translate(-275.53 -276.04)" style="fill:#231f20;fill-rule:evenodd"/><path d="M365.07,419.51c.19,0,.14.15.3.13-.08.08,0,.28,0,.43.2-.05.17-.32.48-.26s-.07.36-.18.52c-.05-.06-.2,0-.26-.09a2.64,2.64,0,0,1,0,1c-.75,0-.35-1.28-.3-1.77" transform="translate(-275.53 -276.04)" style="fill:#231f20;fill-rule:evenodd"/><path d="M370.78,420.07c.19,0,0,.16,0,.3.52.26,1.12,0,1.51.34.07.05.05.17.13.26s.27.15.39.27a1.72,1.72,0,0,1,.49,1.12,8.79,8.79,0,0,1,.6,2.47c-.59.2-1-.26-1.47-.22-.17,0-.33.16-.52.18-.43,0-.93-.29-1.38-.31s-1.15.07-1.7,0a5.55,5.55,0,0,1-1.81-.91c-.2,0-.12.22-.26.26-.39,0-.52-.35-.65-.65.61-.51,1.26-1.3,2.24-1.25.35,0,.68.28,1,.3.57,0,1.11-.28,1.61,0a.36.36,0,0,0,.17-.18c-.08-.75-1.3-.3-1.78-.17a2.73,2.73,0,0,0-1.55-.26c-.08-.09.12-.24.22-.34a5.86,5.86,0,0,1,1.08-.91c.57.32.9-.41,1.61-.34m-.61,2.21c0,.24.24.22.47.22,0-.32-.23-.32-.47-.22m1.21.56c0-.14-.12-.26-.3-.26,0,.17.15.37.3.26" transform="translate(-275.53 -276.04)" style="fill:#8bc53f;fill-rule:evenodd"/><path d="M359,420.81a1.24,1.24,0,0,1,.3.61c-.22,0-.3-.16-.52-.18.07-.15.21-.22.22-.43" transform="translate(-275.53 -276.04)" style="fill:#002d62;fill-rule:evenodd"/><path d="M370.65,422.49c-.24,0-.48,0-.47-.22.24-.1.45-.09.47.22" transform="translate(-275.53 -276.04)" style="fill:#231f20;fill-rule:evenodd"/><path d="M371.08,422.58a.31.31,0,0,1,.3.26c-.16.11-.3-.09-.3-.26" transform="translate(-275.53 -276.04)" style="fill:#231f20;fill-rule:evenodd"/><path d="M358.79,424.22a3.69,3.69,0,0,0-2.39,1.12c-.41-.11-.76.18-1.07.3.14.25.32,0,.65,0a1.87,1.87,0,0,1-.52.66c-.34.24-1.07.19-.91.78a8.84,8.84,0,0,0,1.43-.73c.09-.07,0-.22.13-.35a5.17,5.17,0,0,1,2-1.39.91.91,0,0,1,.82.13c-.09.24-.14.51-.26.74s.2.11.17.3c-.18.5-.9.66-.82,1.26-.16.26-.55.28-.47.78-.2.25-.69.21-.7.65a10.91,10.91,0,0,1-2.5,1c-.15,0-.16.17-.26.22-.9-.14-1.65.34-2.21,0-.09-.11.14-.27.22-.35A10.81,10.81,0,0,1,353,427a3.32,3.32,0,0,1,1.69-2.08c.08,0,.06-.2.13-.26a3.65,3.65,0,0,1,3.38-.56c.18-.06.57-.09.6.13" transform="translate(-275.53 -276.04)" style="fill:#8bc53f;fill-rule:evenodd"/><path d="M370,432.62c-.06-.38.18-.48,0,0" transform="translate(-275.53 -276.04)" style="fill:#fff;fill-rule:evenodd"/><path d="M351.13,415.66c.36,0,.57.43.91.56.11,0,.28,0,.43,0,.45.1.74.56,1.22.13a1.75,1.75,0,0,0,1.47.34c.57.52,1.46.7,1.74,1.52a1,1,0,0,1,.82,1.16c.59.24.47,1.21.82,1.68-1.25-.17-1.5-1.72-2.21-2.59-.11.68.39,1.12.53,1.69-.28,0-.36-.22-.7-.18.24.6,1.16.54,1.39,1.17a1.55,1.55,0,0,1,.91.44c-.55.14-1,.49-1.51.51a8.17,8.17,0,0,1-.92-.17,3,3,0,0,1-1-.13c-.16-.09-.28-.28-.47-.35-.36-.14-.74-.14-1-.26a10.38,10.38,0,0,0-.91-.6c0-.14.22-.13.26-.26-.59-.66-1.57-1.34-1.43-2.46a2.24,2.24,0,0,1-.26-.87c.18,0,.14-.06.34-.09,0-.57-.37-.75-.43-1.25m2.47,2.81c0,.19.37.34.39.09-.07-.08-.26-.19-.39-.09m.78.65c.22,0,.34,0,.35-.22-.16,0-.22-.16-.43-.13,0,.16.07.21.08.34m.61.43c.22,0,.39-.07.43-.26-.15-.14-.44-.14-.65-.22a.53.53,0,0,0,.22.47" transform="translate(-275.53 -276.04)" style="fill:#8bc53f;fill-rule:evenodd"/><path d="M359.92,403.23a3,3,0,0,1,2.51-.47,5.83,5.83,0,0,1,3.28,3.89,2.63,2.63,0,0,1-.22,1.87c2.2.95,1.39,5.53-.18,6.66a2.07,2.07,0,0,1-2.07.22,4.49,4.49,0,0,1-2.47,1.82c-.05,3,1.42,4.71,2.81,6.4.15-.45-.33-.78-.47-1.34a8.4,8.4,0,0,1-.3-3.11c.18-.12.24.21.34.3.41-.74.43-1.88,1.26-2.21.14-.47.6-.78.91-1.17.12-.14.17-.34.3-.47s.4-.19.61-.34a4.55,4.55,0,0,1,1.95-1.22,5.86,5.86,0,0,1,2.55-.43c-.11.3-.51.3-.57.69a1.22,1.22,0,0,0,.26.83c-.12.35-.09.86-.3,1.12,0,.2.27.13.3.3a4.51,4.51,0,0,1-.34.78c0,.17.2.11.22.26a12.81,12.81,0,0,1-1.21,2.08c.06.1.18.14.26.22a10.71,10.71,0,0,1,2.51-.18c.11.14,0,.28-.13.34,1.22.24,1.64,1.27,2.2,2.16-.11.34.22.66.26,1.09,0,.12-.06.26,0,.39.05.49.54,1,.17,1.39,0,.2.32.11.31.34-.38.28-.66-.11-.91-.22s-.41,0-.61-.09-.34-.22-.56-.22-.34.15-.52.18a7.37,7.37,0,0,1-1.47,0c-.5,0-1,.09-1.47,0a3.07,3.07,0,0,1-1.68-.82c-.8.26-1.29-.42-1.65-.87a2.24,2.24,0,0,0-.78.3c-.22.2-.2.59-.51.69.05.14.18.23.08.39A17.51,17.51,0,0,0,366.8,427c.15-.14.25-.33.48-.39.24.35.2.7.43,1a13.18,13.18,0,0,0,1.55,1.39,3.37,3.37,0,0,1,1.3,2.51c0,.21-.12.43-.13.64s.09.32,0,.48-.2.2-.26.34c-.13.33,0,.8-.3,1-.51.05-.45-.47-.6-.77-.2,0-.24.07-.39,0a8.4,8.4,0,0,0-2.3-3.25c-.48-.43-1-.86-1.47-1.3a8.38,8.38,0,0,0-1.56-1.43c-.37-.19-.85-.16-1.08-.56,0-.17.28-.12.47-.13-.63-1.09-1.44-2.22-3.33-1.91-.12.3-.34.55-.13.87-.07.66-.78.9-.69,1.56a3.1,3.1,0,0,1-.78.6.8.8,0,0,1,0,.35c-.2.28-.66.3-.78.69a23.62,23.62,0,0,0-2.64,1.17c-.09.07-.14.2-.26.26-.42.2-.92,0-1.34.3a6.63,6.63,0,0,0-2.39-.22c0-.42.26-.52.56-.6a6.77,6.77,0,0,0,1.21-3.07c.28-.22.3-.49.53-.78s.7-.47.91-.78c.09-.14.07-.31.18-.43s.62-.3,1-.52c.14-.08.25-.26.39-.34.38-.24.84-.16,1.22-.3a1.83,1.83,0,0,0,1.39,0,4.62,4.62,0,0,0,2.86.56c-.49-.55-.87-2.05-1.74-2-.43,0-.73.42-1.12.56-1.12,0-2.64.22-3.25-.52a3.08,3.08,0,0,1-2-.69c0-.14,0-.1,0-.26a3.6,3.6,0,0,1-1.47-1.9,3.66,3.66,0,0,1-.43-1.51c0-.38-.3-.66-.3-1,0-.14.23-.11.34-.17a4.49,4.49,0,0,1-.56-1.87c.4-.11.6.31.7.66a3.5,3.5,0,0,1,.86.47c.41-.32.73.1,1.09.22.09-.07.06-.26.13-.34.57-.07.78.4,1.17.6s.8.09,1.16.3a3.18,3.18,0,0,1-.3-1.69,1.27,1.27,0,0,0-.47-.3c-3.65,1.32-5.31-5.88-2.12-6.88a2.39,2.39,0,0,1-.26-2.2c.43-1.33,2-2.35,3.37-2.86a4.19,4.19,0,0,1,.65-.3,6.93,6.93,0,0,1,.7,0c1.39,0,2.47-.11,2.89.95m-1.3-.47a4.55,4.55,0,0,0-1.82.22,3.8,3.8,0,0,0-.39,0,5.7,5.7,0,0,0-1,.39,6.62,6.62,0,0,0-1.9,1.61,3.17,3.17,0,0,0-.69,1.94c.3.22.8.23,1.07.48,0,.21.15.36,0,.66-1.84-.26-2.51,1.36-2.34,3.11.11,1.16.75,2.45,1.56,2.72.57.2.95-.2,1.29-.17s.36.3.65.39.74-.05.86.3a1.54,1.54,0,0,0,.61,2.21,4.33,4.33,0,0,0,.78,0,9.35,9.35,0,0,0,1.9.13,6.58,6.58,0,0,0,2.21-.61c.54-.32.9-1.41,1.38-1.52s.64.29,1,.3a1.92,1.92,0,0,0,.95-.34,5.37,5.37,0,0,0,1.26-3.33c.05-.87-.06-1.79-.52-2.07s-1.06,0-1.12-.43c0-.24.36-.49.51-.82.71-1.55-1.26-3.81-2.21-4.38a2.23,2.23,0,0,0-2.94.66c-.2-.16-.55-.14-.65-.39a.92.92,0,0,0-.56-1.08m11.29,13.11c.07-.54-.22-1.15,0-1.82a.06.06,0,0,0-.09,0,5,5,0,0,0-3.72,2.21c-.14,0-.18.07-.34,0-.22.36-.61.57-.86,1s-.23,1-.69,1.34c-.11,0-.12-.17-.26-.18a3.53,3.53,0,0,0-.31,1.87.69.69,0,0,1-.43.09,7.1,7.1,0,0,0,.26,1.47c.11.44.17,1,.66,1.13.19-.4.11-1.08.56-1.22a9.75,9.75,0,0,0-.34,2c.46-.51,1.14-.58,1.68-.91.14-.09.22-.26.35-.35s.34-.14.47-.26.16-.27.26-.39a16.81,16.81,0,0,0,1.3-1.29c0-.18-.14-.15-.09-.34a18.53,18.53,0,0,0,1.26-2c-.12,0-.14-.13-.18-.22a2.89,2.89,0,0,0,.39-.91c0-.12-.22-.07-.21-.22,0-.4.33-.66.39-1m-18.35,1c-.21,0-.16.08-.34.09a2.14,2.14,0,0,0,.26.86c-.14,1.12.83,1.81,1.43,2.47,0,.14-.23.12-.26.26.29.1.55.42.91.6s.63.13,1,.26c.2.07.31.26.48.34a2.61,2.61,0,0,0,1,.13,9,9,0,0,0,.92.18,6.88,6.88,0,0,0,1.51-.52,1.59,1.59,0,0,0-.91-.43c-.22-.63-1.14-.56-1.39-1.16.34,0,.43.15.7.17-.14-.57-.64-1-.53-1.69.71.87,1,2.42,2.21,2.6-.35-.48-.22-1.45-.82-1.68a1,1,0,0,0-.82-1.17c-.27-.81-1.17-1-1.74-1.51a1.78,1.78,0,0,1-1.47-.34c-.47.43-.76,0-1.22-.13-.15,0-.31,0-.43,0-.34-.13-.55-.58-.91-.57.06.5.44.69.43,1.26m5.37.47c0,.18.2.2.22.39.85,0,.8,1,1.34,1.39a.8.8,0,0,0,.26.61c-.08-.72-.14-1.48-.26-2.17a3.45,3.45,0,0,0-1.55-.22m2.12.18a16,16,0,0,0,.74,3.37,10.59,10.59,0,0,0,.7,1.17c.36.66.57,1.28,1.12,1.6,0,.44.46.57.69.87s.43,1,.91,1.25a.71.71,0,0,0,0,.31,16.18,16.18,0,0,0,2.68,2.24,2.4,2.4,0,0,1,.13.3,15.08,15.08,0,0,1,2.39,2.26c.34.49.53,1.05.91,1.55a10.23,10.23,0,0,1,.43-1.68c-.91-1.67-2.44-2.67-3.81-3.85a16.09,16.09,0,0,1-2.24-2.26c-.36-.47-.68-1-1-1.51s-.8-1-1.13-1.48a11.54,11.54,0,0,1-1.42-4.33,5.64,5.64,0,0,0-1.09.18m10.12,2.86a5.57,5.57,0,0,0-1.07.91c-.1.1-.3.24-.22.34a2.75,2.75,0,0,1,1.55.26c.47-.13,1.69-.57,1.78.18a.36.36,0,0,1-.18.17c-.5-.32-1,0-1.6,0-.36,0-.69-.28-1-.3-1,0-1.64.75-2.25,1.26.14.3.26.6.65.65.14,0,.06-.29.26-.26a5.56,5.56,0,0,0,1.82.91c.54.08,1.11,0,1.68,0s1,.33,1.39.3c.19,0,.34-.16.51-.17.51,0,.88.41,1.47.21a8.53,8.53,0,0,0-.6-2.46,1.77,1.77,0,0,0-.47-1.13c-.11-.11-.29-.14-.39-.26s-.06-.2-.13-.26c-.39-.32-1-.09-1.51-.34-.07-.14.16-.3,0-.3-.71-.06-1,.66-1.6.35m-10.39.82c.22,0,.3.16.52.18a1.24,1.24,0,0,0-.3-.61c0,.21-.14.28-.22.43m-.6,2.86a3.66,3.66,0,0,0-3.38.56c-.07.06,0,.21-.13.26A3.36,3.36,0,0,0,353,427a10.49,10.49,0,0,0-.91,2.42c-.09.07-.31.24-.22.35.55.3,1.31-.17,2.21,0,.1,0,.11-.2.26-.22a11.14,11.14,0,0,0,2.51-1c0-.44.49-.4.69-.65-.07-.49.32-.52.47-.78-.08-.6.65-.77.82-1.26,0-.18-.24-.08-.18-.3s.16-.51.26-.74a.92.92,0,0,0-.82-.13,5.14,5.14,0,0,0-2,1.39c-.09.14,0,.28-.13.35a9.41,9.41,0,0,1-1.43.73c-.16-.59.56-.54.91-.78a1.79,1.79,0,0,0,.52-.66c-.32,0-.5.22-.65,0,.32-.13.67-.41,1.08-.3a3.65,3.65,0,0,1,2.38-1.12c0-.22-.43-.19-.6-.13" transform="translate(-275.53 -276.04)" style="fill:#231f20;fill-rule:evenodd"/><path d="M409.9,402.34c.1.32,0,.78.37.93.5,0,.68-.49,1-.73.45.1.18.73.35,1,.51,0,.84-.72,1.31-.41s-.26.9-.07,1.41c.57-.09.89-.74,1.51-.6.21.23,0,.57-.05,1,.34.23.84.11,1.17.18.25.74-.49,1.17-.9,1.71-.63.83-1.1,1.87-1.66,2.78.23.21.86.32.78.63s-.51.29-.64.59c.08.45.74.56.54,1s-.76.21-1,.55c0,.46.56.78.56,1.14s-.57.09-.74.3c0,.38.3.7.11,1.07-.3,0-.68-.05-.84.15a4.4,4.4,0,0,1-.1,1,.87.87,0,0,0-1.3.72c-.62,0-1.18.22-1.18.84-.05.14-.19.17-.39.12a4.64,4.64,0,0,0,.52,3.35,15.72,15.72,0,0,1,2-2.88,2.15,2.15,0,0,0,.95.74c.14-.57-.73-.74-.72-1.35.45-.09.57.32.86.41.65.18,1.41-.53,1.62-1.28.14-.51-.07-1,0-1.51.81.1.3,1.11.91,1.28.34.1.48-.22.71-.45s.5-.33.64-.5a7.24,7.24,0,0,0,.81-1.76c.8.05.21,1.14.8,1.35a3.83,3.83,0,0,0,1.78-.55c.21-.13.35-.36.53-.47a6.41,6.41,0,0,1,1.07-.39.44.44,0,0,1,.33.23c-.39.87-1.91,1.38-1.47,2.77.2.13.53,0,.66.24-.26.77-1.3.7-1.34,1.55s1.34.84,1.34,1.81a1.91,1.91,0,0,0-1.79,1.48c-.11.39,0,.84-.17,1.13-.28.09-.26-.33-.49-.4s-.44,0-.6,0c-.87.31-.7,1.67-1,2.28-.41,0-.34-.3-.64-.37-.76-.17-1,1.16-1.43,1.58-.59-.1-.39-.94-1.09-1s-.82,1.13-1.5,1.39c-.42-.28-.56-.78-1.09-1a.72.72,0,0,1-1-.24,7,7,0,0,0-1,1.92c-.15.36-.23.77-.36,1.19a4.66,4.66,0,0,0-.45,1.49c-.57.24-1.23,1.35-1.86,1.7s-1.24.24-1.36-.47a25.11,25.11,0,0,1,.64-3,4,4,0,0,0-1.49-1.14c-.25,0-.34.21-.58.23a2.43,2.43,0,0,0-2,0c-.41.21-.76,1-1.14.2.51-1.18-.28-1.62-1.38-1.53-.65.05-1.13.76-1.65.53a2.4,2.4,0,0,0,.08-2.06c-.42-.53-2.14-.19-1.37-1.3.67-.35,1.53-.53,1.88-1.24a1,1,0,0,0-.54-1.28c-.48-.14-1.3-.38-1.8-.5s-1.24-.05-1.17-.54c0-.24.34-.28.67-.45a2.73,2.73,0,0,0,1.62-1.88c-.26-.64-1.47-.16-1.68-.76.37-.51,1.12-.73,1.31-1.41s-.43-1-.53-1.7c.43-.39,1.68-.49,1.64-1.18,0-.36-.67-.55-.59-1s1-.59,1.16-1a4.8,4.8,0,0,0,.78-2.37c.1,0,.16.09.3.09.39.93-.53,2.59.21,3.25,1,.3,1.8-1.62,2.53-.59-.71.78-1.55,2.55-.68,3.53.69.09,1.21-.75,1.74-.2a7.12,7.12,0,0,0-1,2.56,2.47,2.47,0,0,0,.57.82c1,.26,1.46-.8,2.39-.61-.16.84-.84,1.28-.74,2.19a2.93,2.93,0,0,0,.49,1c.24.28.68.48.66.78s-.68.77-.86,1.17a1.61,1.61,0,0,0-.14.89c.06.37.41.66.37.93s-.57.55-.42,1c.68.43,1.68.64,2.07,1.28.48-.57.66-1.57,1.14-2.14-.59-.59-.53-1.68-.76-2.64a3.62,3.62,0,0,1-.13-1c0-.24-.16-.49-.16-.76a2.06,2.06,0,0,1,.21-1.12c-.1-.58.11-1.39-.4-1.67-.35,0-.72.1-.94-.19.09-.47.4-.86,0-1.05s-.57.23-1,.08a.22.22,0,0,0-.11-.15c-.05-.24.15-.44.2-.71-.13-.39-.84-.11-1-.43-.2-.47.33-.59.37-.92.06-.53-.69-.41-.93-.87.18-.55.83-.46,1-1-.07-.32-.63-.28-.69-.61.26-.39,1-.16,1.12-.71-.34-.35-.8-1,.23-.93a2.52,2.52,0,0,0,.74-.63c0-.28-.24-.35-.22-.63s.22-.07.26-.19c-.2-1.34-1-2.28-1.31-3.51.76.18.7-.59.89-1.06.57-.07.32.6.83.63s.45-.77.64-1.24c.45,0,.35.36.57.51.47-.05.49-.95,1-.78.32.11,0,.81.47.91s.52-.82,1.22-.74c.07-.17.21-.09.37,0m-.46.62c-.34.28-.32.79-.82.8s-.62-.41-1-.66c-.09.46-.49.65-1,.49,0,.72-.72,1-1.44.66-.75.37-.49.95-.16,1.68a5.38,5.38,0,0,0,.3.46,4.8,4.8,0,0,1,.35,1.39c.17.26.47.68.9.41.11-.22.06-.64.25-.74s.24.33.39.47a1,1,0,0,0,1.41-.25c.3.24.32.57.69.66s.72-.32,1.12-.43c.11.14,0,.41.09.57.43.17.81-.11,1.07-.11s0,.32-.07.45c.51.6.93-.15,1.43,0,.64-1,1.19-2.06,1.87-3a2.61,2.61,0,0,1-1-.93.93.93,0,0,1-1.57-.6c-.66.16-1-.34-1.27-.7-.65.57-1.14-.18-1.52-.59m2.57,6.45c-.22-.23-.58-.26-.8-.53-.39.22-.82-.13-1.14-.3-.2.16-.53.14-.81.2a4.29,4.29,0,0,0-.68-.42,1.53,1.53,0,0,1-.77.25,3.11,3.11,0,0,0-.82-.35c-.19.37-.56.5-1.15.33-.05.61-.58.92-1,1.18.3.56-.27,1.12-.65,1.29.39.51-.22,1.09-.56,1.29.67.21.74.85.5,1.55a5.44,5.44,0,0,0,.61.19,1.29,1.29,0,0,1,.16.8,1.93,1.93,0,0,0,.56,0c.26.34.72.53.51,1.22,2,.45.43,2.82,1.12,4.17,0,.19-.1.22-.1.4.49.82.39,2.06.91,2.85-.14.27.07.28.05.55-.35.8-.84,1.39-1.16,2.22-.2,0-.3.24-.54.24a10,10,0,0,0-2.49-1.47,1.81,1.81,0,0,1,.2-1.68c-.74-1,0-2.27.57-2.91a2.39,2.39,0,0,1-.87-2.79c-1.72.51-2.91-1-2.07-2.8-1.53-.25-1.57-1.61-1.37-3.15-.57,0-.77.12-1.16-.22s-.3-.89-.55-.91-.69.71-.8.75c1.09.87-.09,2.05-1,2.29a1.93,1.93,0,0,1-.39,2.6c.44.16.95.26,1.15.59a2.66,2.66,0,0,1-.8,2c-.24.24-.74.34-.73.58,1.42.26,3.05.92,2.91,2.14-.13,1-1.16,1.33-1.72,1.95,1,.29,1.17,1.17,1.3,2.09,1.07-.41,2.87-.05,2.91,1.16a3.7,3.7,0,0,1,1.93-.3c.07-.09.11-.26.26-.24,1.41.14,1.91,1,2.76,1.51-.15.68-.34,1.34-.46,2.18-.08.16-.31.23-.16.44.63-.4,1.1-1,2-1a31.78,31.78,0,0,1,1.29-3.44c.25-.45.53-1.2.94-1.34.28.05.39.36.68.43s.4-.07.59,0c.49.16.59.73,1,.93.36-.45.49-1.29,1.13-1.36s1,.35,1.38.63c.35-.64.93-1.64,1.83-.88,0-1.24.57-2.88,2-2.14a2.4,2.4,0,0,1,1.52-2.17c-1.16-.41-1.45-2.33-.23-2.79a2.18,2.18,0,0,1-.24-1.46c-.62.29-2.12.2-2.48-.6-.18.48-.53.59-.82.93s-.72,1.07-1.64.77a2.62,2.62,0,0,1-2,1.73,2,2,0,0,1-.21,2.26c.76,1.14-.63,3-1.82,2.35,0-1.37,1-2.46,1.26-3.86-.08-.22-.43-.22-.6-.27a10.36,10.36,0,0,0-1.72,2.92c-.44,0-.38-.44-.75-.53,0-.39-.4-.89-.48-1.41,0-.11.05-.22.05-.36s-.21-.54-.21-.76a7.44,7.44,0,0,1,.24-1.58c0-.11.24-.21.32-.32.36-.47.55-1,1.23-.82a1.09,1.09,0,0,1,1.26-.78c0-.26.07-.51.11-.76s.57-.14.72-.49c.06-.15-.07-.39,0-.61s.24-.26.45-.49a1.2,1.2,0,0,1,.25-1.66,1,1,0,0,1-.14-1.22c-.41,0-.37-.52-.58-.74m-.71,13c.44.07,1.2-1,.69-1.55a2.49,2.49,0,0,0-.69,1.55M407,430c.23.07.33,0,.35-.22a.34.34,0,0,0-.35.22" transform="translate(-275.53 -276.04)" style="fill:#231f20;fill-rule:evenodd"/><path d="M411,403.56c.3.34.61.85,1.28.7a.93.93,0,0,0,1.56.6,2.59,2.59,0,0,0,1,.93c-.68.92-1.24,2-1.87,3-.5-.14-.91.61-1.43,0,.05-.13.24-.34.07-.45s-.66.28-1.08.11c-.07-.16,0-.44-.1-.57-.39.11-.66.53-1.12.43s-.39-.43-.68-.66a1,1,0,0,1-1.42.25c-.15-.14-.06-.46-.39-.47s-.15.53-.25.74c-.44.28-.74-.14-.91-.41a5,5,0,0,0-.34-1.39c-.07-.15-.22-.27-.3-.46-.32-.73-.59-1.3.16-1.68.72.32,1.4.07,1.43-.66.55.16,1,0,1-.49.38.25.52.66,1,.66s.47-.53.81-.8c.37.41.86,1.16,1.51.59m2.78,1.75a14.25,14.25,0,0,0-1.77,2.63.68.68,0,0,0,.16.49c0-.11.17-.07.28,0a27.43,27.43,0,0,0,1.55-3c-.11,0-.08-.09-.22-.07m-1.57,0c-.15.34-.41.72-.63,1.14s-.54,1,0,1a4.53,4.53,0,0,0,.94-2,.48.48,0,0,0-.34-.14m-2.69,1.07c0-.34.2-.78,0-1-.13.26-.21.81,0,1" transform="translate(-275.53 -276.04)" style="fill:#a2238d;fill-rule:evenodd"/><path d="M414,405.39a28.55,28.55,0,0,1-1.55,3c-.12,0-.26-.06-.29.05a.69.69,0,0,1-.16-.49,14.45,14.45,0,0,1,1.78-2.64c.13,0,.1.08.22.08" transform="translate(-275.53 -276.04)" style="fill:#231f20;fill-rule:evenodd"/><path d="M412.51,405.49a4.68,4.68,0,0,1-.95,2c-.56-.06-.2-.68,0-1s.48-.8.64-1.14a.49.49,0,0,1,.34.14" transform="translate(-275.53 -276.04)" style="fill:#231f20;fill-rule:evenodd"/><path d="M409.48,405.46c.19.18,0,.62,0,1-.2-.15-.12-.7,0-1" transform="translate(-275.53 -276.04)" style="fill:#231f20;fill-rule:evenodd"/><path d="M407.56,409.08a.37.37,0,0,1-.09.26c-.12-.07-.26-.13-.22-.31a.28.28,0,0,1,.31,0" transform="translate(-275.53 -276.04)" style="fill:#231f20;fill-rule:evenodd"/><path d="M406.51,409.06c.12,0,.13.09.21.12a.79.79,0,0,1-.16.44c-.08,0-.1-.11-.21-.12,0-.19,0-.38.16-.44" transform="translate(-275.53 -276.04)" style="fill:#231f20;fill-rule:evenodd"/><path d="M411.91,410.46c-.41-.05-.8-.12-.8-.49.3-.13.93,0,.8.49" transform="translate(-275.53 -276.04)" style="fill:#231f20;fill-rule:evenodd"/><path d="M410.2,409.89l.14,0a1.09,1.09,0,0,1-.34.78c-.3-.24.13-.56.21-.8" transform="translate(-275.53 -276.04)" style="fill:#231f20;fill-rule:evenodd"/><path d="M411.9,411.8c-.66.49-.89-1.23-.15-.57.12.11.13.26.15.57" transform="translate(-275.53 -276.04)" style="fill:#231f20;fill-rule:evenodd"/><path d="M410.75,411.44c-.12.38-.24.75-.62.78,0-.32.25-1,.62-.78" transform="translate(-275.53 -276.04)" style="fill:#231f20;fill-rule:evenodd"/><path d="M411.6,412.85c.1.93-.67,1.66-1.39,1.35a6.13,6.13,0,0,0,1.18-1.43c.11,0,.08.09.22.07" transform="translate(-275.53 -276.04)" style="fill:#231f20;fill-rule:evenodd"/><path d="M409.85,413.19q.08,0,.08.06a1,1,0,0,1-.93,1,5.44,5.44,0,0,1,.84-1" transform="translate(-275.53 -276.04)" style="fill:#231f20;fill-rule:evenodd"/><path d="M409.83,415.17a3,3,0,0,1-.15.39c-.2-.05-.24,0-.36-.05-.13-.43.27-.67.51-.34" transform="translate(-275.53 -276.04)" style="fill:#231f20;fill-rule:evenodd"/><path d="M399.76,413.89a1.37,1.37,0,0,1,.34,1.11.9.9,0,0,1-.34-1.11" transform="translate(-275.53 -276.04)" style="fill:#231f20;fill-rule:evenodd"/><path d="M416.45,418.87a4.67,4.67,0,0,1-1.3,2.24,11.51,11.51,0,0,1,1.3-2.24" transform="translate(-275.53 -276.04)" style="fill:#231f20;fill-rule:evenodd"/><path d="M399.28,417.13a27.28,27.28,0,0,1,.73,3.1,7.74,7.74,0,0,1-.84-3,.37.37,0,0,0,.11-.12" transform="translate(-275.53 -276.04)" style="fill:#231f20;fill-rule:evenodd"/><path d="M412,420.92c.51.51-.25,1.62-.69,1.55a2.51,2.51,0,0,1,.69-1.55" transform="translate(-275.53 -276.04)" style="fill:#f68e1e;fill-rule:evenodd"/><path d="M409,422.64c-.37,0-.59-.22-.43-.48.32,0,.54.14.43.48" transform="translate(-275.53 -276.04)" style="fill:#231f20;fill-rule:evenodd"/><path d="M408.09,422.5c.28.06.35.28.33.55,0,0-.13,0-.15.07-.24-.07-.29-.41-.18-.62" transform="translate(-275.53 -276.04)" style="fill:#231f20;fill-rule:evenodd"/><path d="M412.53,423.53c.15,0,.23.09.24.22s-.2.08-.32,0a.32.32,0,0,1,.08-.22" transform="translate(-275.53 -276.04)" style="fill:#231f20;fill-rule:evenodd"/><path d="M401.68,423.24c.3.11.37.39.55.59.36,0,.66.22.62.46-.13.72-1.36-.45-1.18-1" transform="translate(-275.53 -276.04)" style="fill:#231f20;fill-rule:evenodd"/><path d="M407.37,429.75c0,.2-.13.3-.35.22a.34.34,0,0,1,.35-.22" transform="translate(-275.53 -276.04)" style="fill:#8bc53f;fill-rule:evenodd"/><path d="M412.6,410.15a1,1,0,0,0,.14,1.22,1.23,1.23,0,0,0-.24,1.67c-.2.22-.36.2-.44.48s.06.45,0,.6c-.15.35-.54.17-.72.49s-.07.51-.11.77a1.09,1.09,0,0,0-1.26.78c-.68-.18-.87.36-1.22.82-.08.11-.28.21-.32.32a6.79,6.79,0,0,0-.24,1.57c0,.22.2.5.22.76s-.07.26-.06.36c.09.53.44,1,.49,1.4.37.09.3.49.75.53a10.4,10.4,0,0,1,1.72-2.91c.18,0,.52.05.6.27-.31,1.4-1.31,2.48-1.26,3.87,1.19.68,2.57-1.23,1.82-2.35a2,2,0,0,0,.2-2.28,2.63,2.63,0,0,0,2-1.72c.91.3,1.2-.28,1.64-.77s.64-.45.82-.94c.36.81,1.86.9,2.49.61a2.21,2.21,0,0,0,.24,1.46c-1.22.45-.93,2.39.23,2.8a2.39,2.39,0,0,0-1.53,2.16c-1.45-.74-2,.91-2,2.14-.9-.76-1.48.24-1.84.87-.41-.28-.78-.68-1.38-.61s-.76.89-1.12,1.34c-.43-.2-.52-.77-1-.93-.2-.06-.42,0-.6,0s-.4-.38-.67-.43c-.41.13-.7.89-.93,1.33a32.27,32.27,0,0,0-1.3,3.44c-.89,0-1.37.64-2,1-.15-.21.07-.28.16-.44.12-.84.31-1.51.46-2.18-.85-.55-1.34-1.38-2.76-1.51-.16,0-.18.14-.26.24a3.66,3.66,0,0,0-1.93.3c0-1.22-1.84-1.58-2.91-1.17-.13-.92-.32-1.79-1.3-2.08.57-.61,1.6-.94,1.72-2,.16-1.21-1.48-1.87-2.91-2.13,0-.24.49-.34.74-.59a2.64,2.64,0,0,0,.79-1.95c-.2-.32-.71-.43-1.15-.59a1.94,1.94,0,0,0,.39-2.61c.95-.23,2.13-1.41,1-2.29.12,0,.61-.76.8-.75s.31.7.55.91.59.19,1.16.22c-.21,1.54-.16,2.89,1.37,3.14-.84,1.76.34,3.3,2.06,2.8a2.4,2.4,0,0,0,.87,2.8c-.57.63-1.32,1.93-.57,2.91a1.8,1.8,0,0,0-.2,1.67,9.81,9.81,0,0,1,2.49,1.48c.24,0,.34-.2.55-.24.31-.84.8-1.43,1.16-2.22,0-.28-.19-.29-.05-.56-.52-.79-.42-2-.91-2.85,0-.18.11-.21.1-.4-.69-1.35.9-3.72-1.12-4.17.21-.68-.24-.88-.51-1.23a2.12,2.12,0,0,1-.55,0,1.35,1.35,0,0,0-.15-.8,6.22,6.22,0,0,1-.62-.18c.24-.7.16-1.34-.51-1.55.34-.2.95-.79.56-1.3.38-.16,1-.73.66-1.28.44-.26,1-.57,1-1.18.59.17,1,0,1.15-.33a3.24,3.24,0,0,1,.82.35,1.56,1.56,0,0,0,.78-.25,4.21,4.21,0,0,1,.68.42c.28-.05.61,0,.81-.2.32.18.76.52,1.15.3.21.28.57.3.8.53s.17.69.58.73M407.24,409c0,.18.1.24.23.31s.07-.15.09-.26a.29.29,0,0,0-.32,0m-.89.47c.11,0,.13.09.21.12a.78.78,0,0,0,.16-.43c-.08,0-.09-.11-.21-.13s-.14.25-.16.44m4.76.48c0,.36.39.43.8.49.14-.45-.49-.61-.8-.49m-1.12.7a1.08,1.08,0,0,0,.34-.78l-.14,0c-.07.24-.5.56-.2.8m1.75.54c-.74-.66-.51,1.07.16.58,0-.32,0-.48-.16-.58m-1.62,1c.38,0,.5-.4.62-.78-.37-.17-.62.47-.62.78m1.24.56a5.81,5.81,0,0,1-1.18,1.43c.73.3,1.5-.42,1.4-1.35-.14,0-.11-.08-.22-.07M409,414.21a1,1,0,0,0,.93-1s0-.05-.08-.05a5,5,0,0,0-.84,1m.32,1.29c.13.08.16,0,.36.05a2.94,2.94,0,0,0,.15-.39c-.24-.34-.64-.09-.51.34M400.1,415a1.38,1.38,0,0,0-.34-1.11.89.89,0,0,0,.34,1.11m8.5,7.16c-.16.25.06.49.43.49.11-.35-.11-.46-.43-.49m-.34,1c0-.06.11,0,.16-.07,0-.28-.05-.49-.34-.55-.11.21-.06.55.18.62m4.19.63c.13.08.2,0,.32,0s-.1-.2-.24-.22a.32.32,0,0,0-.08.22m-9.6.54c0-.25-.26-.42-.62-.46-.18-.2-.26-.48-.55-.59-.18.6,1,1.76,1.18,1" transform="translate(-275.53 -276.04)" style="fill:#8bc53f;fill-rule:evenodd"/><g style="clip-path:url(#clip-path-7)"><rect x="78.02" y="78.2" width="15.73" height="28.59" style="fill:url(#linear-gradient-7)"/></g><path d="M363.19,356.33c.51-.32.85-.82,1.39-1.13v-.34c1,.24.66,1.7.43,2.51.64-.22,1-.93,1.74-.87.19-.13.34-.28.65-.18.13,1.22-.51,2-.78,3,.55-.28,1.87-.28,1.43.47a2.73,2.73,0,0,0-1.82.48c-.28-.25-.1-.68-.35-1,.25-.74.64-1.34.82-2.14-1.15-.22-1.34,1.18-2.47,1.26-.64-.57.68-1.85.39-2.78a10.32,10.32,0,0,0-1.7,2.21c-.37-.16-.12-.93-.43-1.13a11,11,0,0,0-.14-2.12c-.32.23-.3.66-.43,1s-.38.66-.48,1,0,.53-.22.66c-.49-.28-.49-1.21-.78-1.74,0-.05-.24-.56-.34-.56s-.61,1.31-.61,1.6.3.61-.09.78c-.7-.09-.39-1.19-.82-1.55a6,6,0,0,0-.21,2.16c0,.22.28.32.13.53-.47.16-.47-.52-.88-.57-.21-.32-.39-.68-.78-.82-.16.55-.5,1.74,0,2.09a.55.55,0,0,1-.56.47c-.31,0-.4-.66-.74-.65a4.14,4.14,0,0,0,.13,1.47c.09,0,.2-.06.35,0,.32.51-.24.8-.52,1.08-.34,0-.32-.35-.7-.3a4,4,0,0,0,.18,2.09.81.81,0,0,1,.39,1c-.71.22-.74-.53-1.22-.7-.29,1.31.74,2,1,3.09a.9.9,0,0,1-1.39,0,4.06,4.06,0,0,0,1.53,2c.1,0,0-.2.13-.13a9.9,9.9,0,0,1,1.13,3c0,.14.26,0,.26.17a1.29,1.29,0,0,0,.48.87c-.18.55-.86.68-.78,1.34,0,.34.37.33.34.78-1.22.3-1.11-1.9-.3-2.26a10.35,10.35,0,0,0-.87-3.13,3.4,3.4,0,0,1-2-1.78,2.61,2.61,0,0,1-.48-1.74,1.19,1.19,0,0,1,.87.13,7.71,7.71,0,0,1-.53-2.51c0-.19-.29-.18-.26-.43s.58-.22.87-.18a12.87,12.87,0,0,0-.09-2.74c.37-.16.53.17.82.22.17-.7,0-1.52.09-2.21.31-.19.65.05,1,.13a21.52,21.52,0,0,1,.61-2.17c.64,0,.76.54,1.17.78.21-.74.12-1.68.53-2.12a1.49,1.49,0,0,1,.87.7c.25-.5.75-.85.65-1.57.43,0,.56.45.74.7s.4.55.57.82c.51-.57.72-1.43,1.48-1.74.47.54.36,1.66.56,2.47" transform="translate(-275.53 -276.04)" style="fill:#231f20;fill-rule:evenodd"/><path d="M366,372.43a1.3,1.3,0,0,1,.56,2.3.56.56,0,0,1,.09.39c-.14.13-.49.05-.69.13s.16.1.13.22a14,14,0,0,0,1.39,4.34c.29.51.93,1.24.44,1.7-.83.06-1.49,1-2.35.47,0,.06-.06.33-.18.44-.47,0-.86.41-1.34.52a5,5,0,0,1-1.3-.14c-1.39-.09-3.22.76-4.21,0-1,.34-2.32,0-2.65-.74-.87-.07-1.7-.5-1.6-1.3,0-.24.28-.36.39-.57.2-.36.31-.78.56-1.16a16.73,16.73,0,0,0,1.69-3.39c-.1-.18-.41-.14-.43-.39a5.57,5.57,0,0,1,2.52,0c-.16.75-1.2,0-1.74.3-1,1.76-1.51,3.57-2.34,5.33.14.31.5.4,1,.35.14-.18.14-.49.34-.61.23.08.31.32.34.61a15.87,15.87,0,0,0,1-2.43c.17.69-.32,1.39-.43,2.12a3.65,3.65,0,0,1-.22,1.22c.11.22.66.14.88.09a13.89,13.89,0,0,1,1-3.35c.34,1.09-.37,2.06-.22,3.22a1.43,1.43,0,0,0,1.87.13c.06-.43,0-1,.44-1,.27.24.11.7.13,1.14a2.32,2.32,0,0,0,1.08-.09,28,28,0,0,1,.26-4,1.34,1.34,0,0,1,.39.87c.14,1,0,2.15.13,3.17.67.31,1.2-.2,1.78-.26.14-.06.21-.2.3-.3h.43c-.05-1-.42-2.33-.43-3.39.34,0,.52.45.6.74a20,20,0,0,0,.57,2.47c.37-.24.89-.3,1.21-.57a18.3,18.3,0,0,1-1.82-5.68c-1.14-.36-2.63.51-3.35-.17.3,0,.49-.26.78-.35a25,25,0,0,1,2.78-.18c.21-.41.81-1.17.22-1.61-.16,0-.09.2-.26.18a20.89,20.89,0,0,0-3.13-.13c.05-.51,1-.1,1.34-.35a1.9,1.9,0,0,0,.74.09,3.79,3.79,0,0,1,.69-2c.41.55-.43,1.2-.39,1.95.14,0,.2,0,.3,0a10.11,10.11,0,0,1,1.51-3.78,2.74,2.74,0,0,0,.91-1.3c.49-.1.7-.47,1-.79a1.46,1.46,0,0,1-.52-1.39,1.22,1.22,0,0,0,.69-.56c-.49-.41-1.53-.51-1.22-1.47.4-.38.9-.64,1-1.26-.61-.22-1.13.58-1.62.22,0-.23.24-.22.3-.39-.17-.18-.2-.28-.22-.65a3.13,3.13,0,0,0,1.14-1.74c.25-.15.27-.68.74-.48a4.65,4.65,0,0,1-1,2.52c.43.11,1-.28,1.43-.09.2,1.07-.78,1.7-1.26,2.39a2.49,2.49,0,0,0,.82.3c.22-.12.24-.34.61-.22.32.84-.51,1.53-1,2,.12.17.53.07.74.26a1.69,1.69,0,0,1-1.3,1.74c-.17,1.1-1.32,1.22-1.52,2.29,0,.05,0,0,0,0a17.27,17.27,0,0,0-.65,2.18" transform="translate(-275.53 -276.04)" style="fill:#231f20;fill-rule:evenodd"/><path d="M359.68,360a6.27,6.27,0,0,1,0-1.69c-.07-.07-.1-.19-.22-.22-.16.59-.33,1.66.26,1.91" transform="translate(-275.53 -276.04)" style="fill:#231f20;fill-rule:evenodd"/><path d="M361.54,359.76c.16-.43.41-1.16,0-1.3,0,.35-.31,1.11,0,1.3" transform="translate(-275.53 -276.04)" style="fill:#231f20;fill-rule:evenodd"/><path d="M363.19,360.11c0-.57-.22-1.08-.69-1,.39.3.31,1.07.51,1.56.26,0,.19-.39.18-.61" transform="translate(-275.53 -276.04)" style="fill:#231f20;fill-rule:evenodd"/><path d="M357.85,359.8c-.31.65-.35,2,.34,2.26.09-.72-.43-1.42.09-2a1.81,1.81,0,0,1,.43.78c.1.3.07.72.35.87.18-.88-.18-2.14-1.22-2" transform="translate(-275.53 -276.04)" style="fill:#231f20;fill-rule:evenodd"/><path d="M364.76,360.85c.71.43,0,1.13-.13,1.73a.12.12,0,0,1,.13.09,1.44,1.44,0,0,0,.52-1.87c0-.08.09-.1.09-.21s-.11-.16-.26-.14c0,.22-.26.22-.34.39" transform="translate(-275.53 -276.04)" style="fill:#231f20;fill-rule:evenodd"/><path d="M363.58,363.06c.41-.22.9-.88.61-1.39-.15.49-.8.83-.61,1.39" transform="translate(-275.53 -276.04)" style="fill:#231f20;fill-rule:evenodd"/><path d="M366.32,364.45c.41,0,.59-.89.22-1-.08.3-.39.7-.22,1" transform="translate(-275.53 -276.04)" style="fill:#231f20;fill-rule:evenodd"/><path d="M359,364.75c.17-.14.06-.48,0-.65-.58-.39-.63.78,0,.65" transform="translate(-275.53 -276.04)" style="fill:#231f20;fill-rule:evenodd"/><path d="M358.37,366.1c-.14-.22-.33-.18-.48-.39a4,4,0,0,1-.3-1.53c-.09,0-.14-.09-.22-.13-.44.69.18,2.79,1,2" transform="translate(-275.53 -276.04)" style="fill:#231f20;fill-rule:evenodd"/><path d="M363.28,365.32a1.05,1.05,0,0,0,.22-.74c-.08,0-.07-.12-.22-.09-.09.26-.37.68,0,.82" transform="translate(-275.53 -276.04)" style="fill:#231f20;fill-rule:evenodd"/><path d="M366.79,366.27c.58.53,1.26-1.44.52-1.56-.09.57-.57,1-.52,1.56" transform="translate(-275.53 -276.04)" style="fill:#231f20;fill-rule:evenodd"/><path d="M361.28,365c-.08.47-.32,1.55,0,1.91.38-.39.49-1.8,0-1.91" transform="translate(-275.53 -276.04)" style="fill:#231f20;fill-rule:evenodd"/><path d="M363.41,366.75c.18-.14.3-.82,0-.91-.14.26-.45.78,0,.91" transform="translate(-275.53 -276.04)" style="fill:#231f20;fill-rule:evenodd"/><path d="M366.06,366.7c-.26.27-.86,1.74-.43,2.09.37-.11.34-.59.43-.92a2.76,2.76,0,0,0,.26-1.08,1,1,0,0,0-.26-.09" transform="translate(-275.53 -276.04)" style="fill:#231f20;fill-rule:evenodd"/><path d="M358.76,367.83c-.15,1.57.53,3.22.3,4.86-.33,0-.89-.14-.82.3a3.23,3.23,0,0,0,1,.09c.07-.09.1-.22.22-.26a28,28,0,0,0-.39-3.95c-.07-.36,0-.78-.26-1Z" transform="translate(-275.53 -276.04)" style="fill:#231f20;fill-rule:evenodd"/><path d="M363.71,370.92c-.06.24-.29.62,0,.82a10.74,10.74,0,0,0,.91-3.35s0,0,0,0a17.46,17.46,0,0,0-.82,2.56" transform="translate(-275.53 -276.04)" style="fill:#231f20;fill-rule:evenodd"/><path d="M361.59,369.61a.38.38,0,0,0-.3-.61c0,.32,0,.6.3.61" transform="translate(-275.53 -276.04)" style="fill:#231f20;fill-rule:evenodd"/><path d="M361.71,372.78c0,.09.09.3.26.3a10.46,10.46,0,0,0,.22-3h-.14c0,.7-.53,1.94-.34,2.74" transform="translate(-275.53 -276.04)" style="fill:#231f20;fill-rule:evenodd"/><path d="M361.15,370.87c.07.11.1.27.3.26s.14-.15.13-.3-.38-.21-.43,0" transform="translate(-275.53 -276.04)" style="fill:#231f20;fill-rule:evenodd"/><path d="M361.46,372.48c0-.28-.18-.37-.39-.43-.18.31.17.64.39.43" transform="translate(-275.53 -276.04)" style="fill:#231f20;fill-rule:evenodd"/><path d="M360.37,373a.59.59,0,0,0,.61,0c0,.2.45.18.39-.09a3.59,3.59,0,0,0-.91-.17c0,.09-.11.12-.09.26" transform="translate(-275.53 -276.04)" style="fill:#231f20;fill-rule:evenodd"/><path d="M399.07,416.78a6.18,6.18,0,0,0,.19,1.87,4.85,4.85,0,0,0,.84,1.72l-.57-2.87Z" transform="translate(-275.53 -276.04)" style="fill:#231f20;fill-rule:evenodd"/><path d="M400.55,421.55a1.87,1.87,0,0,0,.23.8,1.4,1.4,0,0,0,.46.34Z" transform="translate(-275.53 -276.04)" style="fill:#231f20;fill-rule:evenodd"/><path d="M415,421.36a8,8,0,0,0,1.91-2.91c0-.49-1.11,1.34-1.11,1.34Z" transform="translate(-275.53 -276.04)" style="fill:#231f20;fill-rule:evenodd"/><path d="M414.38,422.12a3.13,3.13,0,0,1-.69,1.07,1.79,1.79,0,0,1-.76.26l.84-1Z" transform="translate(-275.53 -276.04)" style="fill:#231f20;fill-rule:evenodd"/><path d="M409.49,411.28c.19.27-.49.72-.49.72l.15-.53Z" transform="translate(-275.53 -276.04)" style="fill:#231f20;fill-rule:evenodd"/><path d="M409.11,412.92c.27-.19,0-.42-.15-.38s-.34.38-.34.38Z" transform="translate(-275.53 -276.04)" style="fill:#231f20;fill-rule:evenodd"/><path d="M408.31,414.6a.93.93,0,0,0,.26.72l0-.49Z" transform="translate(-275.53 -276.04)" style="fill:#231f20;fill-rule:evenodd"/><polygon points="132.54 137.49 133.04 137.72 132.73 137.83 132.54 137.49" style="fill:#231f20;fill-rule:evenodd"/><polygon points="136.25 128.89 135.26 130.85 134.84 131 135.26 129.81 135.87 128.97 136.25 128.89" style="fill:#231f20;fill-rule:evenodd"/><polygon points="134.61 128.21 134.15 131.15 134.38 131.42 134.72 129.42 134.61 128.21" style="fill:#231f20;fill-rule:evenodd"/><path d="M409,409.48a.57.57,0,0,1,.12.42h-.27Z" transform="translate(-275.53 -276.04)" style="fill:#231f20;fill-rule:evenodd"/><path d="M353.91,427.84a3.82,3.82,0,0,0-.58.53l.36,0Z" transform="translate(-275.53 -276.04)" style="fill:#231f20;fill-rule:evenodd"/><path d="M396.61,392c1.12-.16,4-1.94,3.89-4.28-.18-2.78-8.81-1.06-12.47.4l.85-.92c.11-.14-.82-1.41-.82-1.41s.71-.8.63-1.2-.05-.14-.2.11-1,1-.94,1.31.55.88.5,1.11a4.73,4.73,0,0,1-.84,1v0c-.36-.53-.53-.7-.06-1.5a1.29,1.29,0,0,0-.9-1.77.65.65,0,0,1-.38-.2,2.88,2.88,0,0,1,.55-1.38,4.93,4.93,0,0,1,2-1.08s-.32-.72-2.18.66a2.46,2.46,0,0,0-1,1.32,1.59,1.59,0,0,0-1-.24,1.82,1.82,0,0,0-1.22.49A2.43,2.43,0,0,0,382,383c-2.14-1.42-2.27-.81-2.27-.81a14.05,14.05,0,0,1,2.16,1.22,3.61,3.61,0,0,1,.64,1.41,1.9,1.9,0,0,1-.47.14c-.82.16-.71,1.34-.59,1.82s.35.75-.24,1.44l-.09.11a8,8,0,0,1-1-1.34c0-.22.55-.68.63-1s-.68-1-.79-1.28-.06-.5-.19-.13.49,1.16.49,1.16-1.07,1.11-1,1.24l1.47,1.82c-2.36-.61-10.12-4.35-12.08-1.63s1.47,4.49,2.87,5.14c1,.43,1.76.1,3.28-.26a14.06,14.06,0,0,0-2.66,1.52c-2.32,1.55,2,3.37,3.74,2.94,1.35-.34,3.66-2.09,4.59-2.82-.11.21-.24.45-.37.73l-2.39,1.68a12.14,12.14,0,0,1-1.19,3.25c-.63.79,1.49-.79,1.89-2.66,0-.21.76-.71,1.26-1-.08.28-.16.57-.22.91l0,.13-.85,1.64s-.38,2-.49,2.73a3.74,3.74,0,0,1-.9,1.53,1.71,1.71,0,0,0,1.29-1.07,25.39,25.39,0,0,0,.64-2.71l.28-.45c.51,3.53,4.22,6.72,4.62,6.72s1.61-.26,3.16-3a9.94,9.94,0,0,0,1.45-3.7l.2.27a24.93,24.93,0,0,0,.66,2.76,1.75,1.75,0,0,0,1.32,1.06,4.21,4.21,0,0,1-.94-1.72c-.17-.72-.43-2.43-.43-2.43l-.84-1.51c0-.37-.09-.71-.15-1,.49.32,1.09.77,1.14,1,.4,1.87,2.52,3.45,1.89,2.66a12.06,12.06,0,0,1-1.18-3.25l-2.09-1.47c-.09-.32-.18-.57-.24-.74,1.12,1,3.34,2.7,4.74,2.68,1.64,0,5.12-2.38,3.51-3.43a14.3,14.3,0,0,0-2.91-1.35,15.35,15.35,0,0,0,3.3.25m-15.82-.59h.08v0l-.09,0" transform="translate(-275.53 -276.04)" style="fill:#231f20;fill-rule:evenodd"/><g style="clip-path:url(#clip-path-8)"><rect x="104.66" y="108.52" width="7.85" height="19.5" style="fill:url(#linear-gradient-8)"/></g><path d="M380.65,396.77s-.16-1.65,3.37-1.65,3.37,1.58,3.37,1.58a20.16,20.16,0,0,1-3.3.41c-1.39-.11-3.41.28-3.44-.34" transform="translate(-275.53 -276.04)" style="fill:#231f20;fill-rule:evenodd"/><path d="M381.34,398.43c.82,0,.76,0,2.72,0s3,.28,3.18.76-1.09,1.12-3.12,1.12-2.37.08-2.72-.34-1.19-1.51-.07-1.51" transform="translate(-275.53 -276.04)" style="fill:#231f20;fill-rule:evenodd"/><path d="M382,401.67c2-.07,2.66-.34,3.57.07s1.88.82.63,1.24a6.89,6.89,0,0,1-3.22.34,1.52,1.52,0,0,1-1.19-1c-.24-.53.21-.62.21-.62" transform="translate(-275.53 -276.04)" style="fill:#231f20;fill-rule:evenodd"/><path d="M386.31,390.44l-.06-.06c.93-.68-.13-2.06.18-2.39.57-.6-.61-1.76-2.13-1.72-2.74.08-2.32,2.12-2.16,2.64s.3.49.24.82-.2.4-.26.63a1.65,1.65,0,0,0-.18.8,1.83,1.83,0,0,0,.58,1.3c.32.34.39.68,2.06.61,1.37-.07,1.69-.5,1.94-1.24a1.18,1.18,0,0,0-.22-1.39" transform="translate(-275.53 -276.04)" style="fill:#231f20;fill-rule:evenodd"/><path d="M381.27,389.89c-.61-.17-7.58-2.78-8.91-2.78s-2.91-.17-3.26,1.6,1.94,2.7,2.55,2.78,3.26-.09,7.67.17c1.63.09,2.12.43,1.86-.17a2.76,2.76,0,0,1,.09-1.6" transform="translate(-275.53 -276.04)" style="fill:#fff;fill-rule:evenodd"/><path d="M380,391.34a14.56,14.56,0,0,0-5.15,1.59c-1.2.68-3,1.52-2.41,1.94a3.75,3.75,0,0,0,3.51.93c1.8-.5,5.41-3.2,5.39-3.63-.06-1.35-1.35-.82-1.35-.82" transform="translate(-275.53 -276.04)" style="fill:#fff;fill-rule:evenodd"/><path d="M387.06,389.64c.73-.23,6.75-2.45,9.64-2.7s3,.68,2.88,1-1.12,2.7-2.7,3.12-7.07,0-8.51.78c-1,.57-.77-.18-1-.78s-.9-1.26-.36-1.43" transform="translate(-275.53 -276.04)" style="fill:#fff;fill-rule:evenodd"/><path d="M388.08,390.7c.66-.21,5.14,1.55,5.93,2.06s1.91.76,1.74,1.26-2.22,2.22-3.14,1.85a20.12,20.12,0,0,1-3.66-1.93c-.87-.59-1.83-1-1.57-1.61s-.29-1.32.7-1.64" transform="translate(-275.53 -276.04)" style="fill:#fff;fill-rule:evenodd"/><path d="M378.46,390.24l-4.77-.91,2.06.7,2.85.21Z" transform="translate(-275.53 -276.04)" style="fill:#231f20;fill-rule:evenodd"/><path d="M389.29,390s4.41-.49,4.91-.7a1,1,0,0,1,.86,0,5.76,5.76,0,0,1-2.22.63c-1.21.07-3.56.07-3.56.07" transform="translate(-275.53 -276.04)" style="fill:#231f20;fill-rule:evenodd"/><path d="M378.81,393l-1.7.49-.33.09c-.75.22-1.45.4-1.53.4a7.26,7.26,0,0,0,2-.34l1.57-.64" transform="translate(-275.53 -276.04)" style="fill:#231f20;fill-rule:evenodd"/><path d="M389.84,392.66a16.93,16.93,0,0,0,2.28,1.33c.85.35.36.35.36.35a5,5,0,0,1-1.29-.56c-.5-.35-1.35-1.12-1.35-1.12" transform="translate(-275.53 -276.04)" style="fill:#231f20;fill-rule:evenodd"/><path d="M384.06,453.41l-8.77-4.49V401.67h-37l-4-8.62,5.51-8.92H375.3V350.44h17.54v33.69h35.78l4.26,7.81-2.74,9.73h-37.3v47.26Zm-7.93-5,7.93,4.06,7.93-4.06V400.84H429.5L432,392,428.12,385H392V351.27H376.13V385H340.26l-5,8.14,3.62,7.73h37.28Z" transform="translate(-275.53 -276.04)" style="fill:#231f20"/><path d="M384.44,348s5.06.09,5.63-.2,2.49-4,11.31-3.54,13,4.78,16.38,5.55,3.74.2,3.74.2a3.4,3.4,0,0,1,1.44-4.7c3.07-1.62,5.46,1.73,5.93,3.07a31.15,31.15,0,0,0,1.64,4.22c.57,1,4,4,4.78,5.66s0,4.28-1,4.78c-4,2-5.37-1.24-5.37-1.24s-4.89,3.07-2.68,13.41,7.09,14.56,7.09,14.56-2.68-3.54,1.63-5.26c2.4-1,4.27,1.7,4.5,2.68.68,2.88-1.05,5.08-3.25,6.71s-6.33,4.4-5.75,15.71,1.53,17.44-5,24.53-18.1,4.3-18.1,4.3-2.34,5.47-6,8.24c-5,3.74-12,3.55-14,7.66-.19.39,2,6-3.26,6h-.29c-5.27,0-3.07-5.66-3.26-6-2-4.12-9-3.92-14-7.66-3.7-2.77-6-8.24-6-8.24s-11.6,2.78-18.11-4.3-5.55-13.23-5-24.53-3.54-14.08-5.74-15.71-3.93-3.83-3.26-6.71c.23-1,2.11-3.64,4.51-2.68,4.3,1.72,1.62,5.26,1.62,5.26s4.89-4.22,7.09-14.56S339,361.81,339,361.81s-1.34,3.26-5.37,1.24c-1-.5-1.72-3.16-1-4.78s4.22-4.7,4.78-5.66a29.43,29.43,0,0,0,1.64-4.22c.48-1.34,2.87-4.69,5.93-3.07a3.41,3.41,0,0,1,1.45,4.7s.38.58,3.74-.2,7.56-5.08,16.37-5.55,10.73,3.26,11.31,3.54,5.64.2,5.64.2Zm-.82,4-4.57.09s-2.49,3.26-5.37,1.15c-2.45-1.8-.09-4.22-.09-4.22s-.09-1-3.54-1c-4.31,0-9.87,5.55-16.48,6.51a16.24,16.24,0,0,1-11.12-2.3,7.82,7.82,0,0,1-.77,2.59,10.28,10.28,0,0,1-1.62,1.91s9.58,2.88,7.76,19.27c-1.45,13-11.21,17.33-11.21,17.33s4,2.59,5.37,10c1,5.35-.1,13.8,1.34,19.46,1,4,3.54,9.77,10.35,11.21s7.38-1.45,9.29-.58.19,4.22,4.89,7.86c1.5,1.16,7.19,3,10.15,4.89,2,1.25,6,6.33,6,6.33h0s4-5.07,6-6.32c3-1.92,8.65-3.72,10.16-4.89,4.7-3.64,3-7,4.89-7.86s2.49,2,9.29.58,9.32-7.16,10.35-11.21c1.44-5.66.36-14.1,1.34-19.46,1.34-7.37,5.36-10,5.36-10S421.59,389,420.15,376c-1.82-16.39,7.76-19.27,7.76-19.27a10.19,10.19,0,0,1-1.63-1.91,7.92,7.92,0,0,1-.76-2.59,16.24,16.24,0,0,1-11.12,2.3c-6.61-1-12.16-6.51-16.48-6.51-3.45,0-3.55,1-3.55,1s2.37,2.41-.09,4.22c-2.88,2.11-5.37-1.15-5.37-1.15l-4.58-.09Z" transform="translate(-275.53 -276.04)" style="fill:#c5c7c9"/><path d="M384.13,460.93h-.3a4,4,0,0,1-3.27-1.26c-1.19-1.43-.8-3.59-.59-4.75,0-.15.06-.32.07-.43-1.07-2.07-3.63-3-6.59-4a25.94,25.94,0,0,1-7.19-3.39c-3.22-2.42-5.4-6.72-6-8.06-2.22.44-12.18,2-18.19-4.57s-5.8-12.53-5.26-22.24c0-.86.09-1.74.14-2.67.55-10.78-3.16-13.52-5.38-15.15l-.16-.11c-2.91-2.15-4.08-4.6-3.45-7.26a5.16,5.16,0,0,1,2.42-2.89,3.25,3.25,0,0,1,2.8-.16,4.09,4.09,0,0,1,2.68,2.55,3.51,3.51,0,0,1,.12.82,31.65,31.65,0,0,0,5.2-12.29c1.7-8-.93-11.45-2-12.49a3.74,3.74,0,0,1-1.76,1.39,4.94,4.94,0,0,1-4-.47c-1.26-.64-2.11-3.59-1.2-5.5a19.84,19.84,0,0,1,3.2-3.88,17.59,17.59,0,0,0,1.62-1.82,19.36,19.36,0,0,0,1.23-3.1c.12-.36.24-.71.36-1a6.64,6.64,0,0,1,3.39-3.59,3.83,3.83,0,0,1,3.3.23,3.78,3.78,0,0,1,1.92,4.83,10.38,10.38,0,0,0,2.89-.38,16.47,16.47,0,0,0,3.6-1.59,28.86,28.86,0,0,1,12.87-4c7.72-.42,10.35,2.33,11.34,3.37a3.38,3.38,0,0,0,.26.24,40.55,40.55,0,0,0,5.36.12h.93a37,37,0,0,0,5.4-.14l.22-.22c1-1,3.63-3.78,11.34-3.37a28.86,28.86,0,0,1,12.87,4,16.47,16.47,0,0,0,3.6,1.59,10.36,10.36,0,0,0,2.89.38,4,4,0,0,1,5.21-5.06,6.65,6.65,0,0,1,3.41,3.59l.35,1a19.51,19.51,0,0,0,1.22,3.1,17.15,17.15,0,0,0,1.62,1.82,19.84,19.84,0,0,1,3.2,3.88c.91,1.91.06,4.87-1.2,5.5a4.94,4.94,0,0,1-4,.47,3.84,3.84,0,0,1-1.76-1.38c-1.07,1-3.71,4.53-2,12.48A31.65,31.65,0,0,0,432,387.4a3.51,3.51,0,0,1,.11-.82A4.09,4.09,0,0,1,434.8,384a3.25,3.25,0,0,1,2.8.16,5.16,5.16,0,0,1,2.42,2.89c.62,2.66-.55,5.11-3.45,7.26l-.16.11c-2.22,1.64-5.93,4.37-5.38,15.15,0,.93.09,1.81.14,2.67.54,9.71.87,15.57-5.26,22.24s-16,5-18.19,4.57c-.63,1.34-2.8,5.64-6,8.06a25.85,25.85,0,0,1-7.19,3.39c-3,1-5.52,1.91-6.59,4,0,.1,0,.28.07.43.21,1.16.6,3.32-.59,4.74a4,4,0,0,1-3.27,1.26m-23.26-23.11.18.42c0,.05,2.32,5.37,5.86,8a25,25,0,0,0,6.91,3.24c3.09,1.07,6,2.08,7.24,4.62.11.22.07.45,0,1-.18,1-.52,2.82.35,3.87a3.06,3.06,0,0,0,2.45.87h.3a3,3,0,0,0,2.45-.87c.87-1,.54-2.89.36-3.87-.09-.55-.14-.77,0-1,1.24-2.53,4.16-3.54,7.24-4.61a24.83,24.83,0,0,0,6.9-3.24c3.55-2.66,5.84-8,5.87-8l.18-.42.44.1c.11,0,11.37,2.62,17.59-4.15,5.83-6.34,5.53-11.71,5-21.46,0-.86-.09-1.74-.14-2.67-.58-11.35,3.58-14.41,5.81-16.06l.15-.11c2.57-1.9,3.58-3.92,3.05-6.16a4.16,4.16,0,0,0-1.87-2.19,2.22,2.22,0,0,0-1.91-.11,3.06,3.06,0,0,0-2,1.84,3.45,3.45,0,0,0,.64,2.61l-.77.73c-.22-.18-5.06-4.45-7.26-14.85-2.26-10.6,2.7-13.85,2.91-14l.55-.34.24.59A2.89,2.89,0,0,0,431,363a3.94,3.94,0,0,0,3.12-.44c.66-.32,1.41-2.62.72-4.09a20.11,20.11,0,0,0-3-3.6,15.55,15.55,0,0,1-1.76-2,19.14,19.14,0,0,1-1.33-3.3l-.34-1a5.61,5.61,0,0,0-2.78-3,2.79,2.79,0,0,0-2.4.18,2.84,2.84,0,0,0-1.22,4l.15.28-.18.26c-.39.59-1.84.59-4.3,0a17,17,0,0,1-3.86-1.69,27.86,27.86,0,0,0-12.43-3.85c-7.23-.39-9.62,2.09-10.52,3a2.09,2.09,0,0,1-.53.45c-.59.3-3.93.28-5.87.24h-.91c-1.93,0-5.28.05-5.88-.24a2.21,2.21,0,0,1-.52-.45c-.89-.95-3.28-3.43-10.52-3a27.86,27.86,0,0,0-12.43,3.85,17,17,0,0,1-3.86,1.69c-2.47.56-3.91.55-4.3,0l-.18-.26.16-.28a3,3,0,0,0-3.63-4.15,5.64,5.64,0,0,0-2.78,3l-.34,1a20.43,20.43,0,0,1-1.33,3.3,15.53,15.53,0,0,1-1.76,2,20.1,20.1,0,0,0-3,3.6c-.69,1.47.06,3.76.72,4.09A3.94,3.94,0,0,0,337,363a2.89,2.89,0,0,0,1.51-1.41l.24-.58.54.33c.21.14,5.17,3.39,2.91,14-2.21,10.4-7,14.68-7.26,14.85l-.78-.73a3.44,3.44,0,0,0,.64-2.61,3.06,3.06,0,0,0-2-1.84,2.22,2.22,0,0,0-1.91.11,4.16,4.16,0,0,0-1.87,2.19c-.52,2.24.48,4.26,3.05,6.16l.14.11c2.24,1.65,6.4,4.71,5.82,16.06q-.07,1.39-.14,2.68c-.54,9.74-.84,15.12,5,21.46,6.22,6.77,17.48,4.18,17.58,4.15Zm23,15.36-.34-.41s-4-5-5.86-6.21a41.71,41.71,0,0,0-5.87-2.82,24,24,0,0,1-4.33-2.1,9.77,9.77,0,0,1-3.88-6c-.24-1-.39-1.51-.89-1.74s-.84-.11-1.62.21c-1.28.53-3.22,1.32-7.56.4-5.4-1.14-9.12-5.15-10.75-11.6-.81-3.18-.84-7.16-.88-11a53.32,53.32,0,0,0-.47-8.47c-1.28-7-5.09-9.58-5.13-9.61l-.82-.53.9-.41c.09,0,9.49-4.36,10.89-16.91,1.74-15.7-7-18.57-7.38-18.69L339,357l.69-.63a9.83,9.83,0,0,0,1.53-1.8,7.29,7.29,0,0,0,.7-2.37l.1-.91.74.53a15.86,15.86,0,0,0,10.72,2.2c3.3-.47,6.42-2.18,9.17-3.69s5.16-2.83,7.38-2.83c3.66,0,4,1.19,4.08,1.55l0,.24-.18.18a3.13,3.13,0,0,0-.86,2,1.89,1.89,0,0,0,.89,1.38c2.41,1.76,4.54-.93,4.63-1l.16-.2,5.56-.1,4.85.1.16.2c.09.11,2.22,2.8,4.63,1a1.89,1.89,0,0,0,.89-1.38,3.09,3.09,0,0,0-.86-2l-.17-.18,0-.24c0-.36.43-1.55,4.08-1.55,2.22,0,4.62,1.32,7.39,2.83s5.85,3.22,9.16,3.69a15.84,15.84,0,0,0,10.72-2.2l.74-.53.11.91a7.65,7.65,0,0,0,.7,2.37,9.58,9.58,0,0,0,1.53,1.8l.7.64-.91.27c-.37.11-9.12,3-7.38,18.69,1.4,12.58,10.8,16.87,10.89,16.91l.91.41-.83.53s-3.85,2.58-5.13,9.61a54.15,54.15,0,0,0-.47,8.46c0,3.86-.07,7.85-.88,11-1.64,6.45-5.35,10.46-10.75,11.6-4.35.92-6.28.13-7.56-.4-.78-.32-1.11-.44-1.62-.21s-.65.73-.89,1.74a9.79,9.79,0,0,1-3.89,6,23.65,23.65,0,0,1-4.32,2.1,41.71,41.71,0,0,0-5.87,2.82c-1.86,1.19-5.83,6.16-5.87,6.2l-.09.09Zm-21.67-20.51a2.22,2.22,0,0,1,.94.22c1,.45,1.24,1.38,1.5,2.45a8.67,8.67,0,0,0,3.49,5.46,24.69,24.69,0,0,0,4.09,2,42.82,42.82,0,0,1,6,2.91c1.64,1.06,4.61,4.59,5.7,5.93,1.09-1.34,4.06-4.87,5.71-5.93a42.82,42.82,0,0,1,6-2.91,24.71,24.71,0,0,0,4.09-2,8.67,8.67,0,0,0,3.49-5.46c.26-1.07.49-2,1.5-2.45a2.77,2.77,0,0,1,2.47.2c1.23.5,2.91,1.19,6.93.34,5-1.06,8.39-4.7,9.94-10.82.77-3,.8-7,.84-10.77a54.18,54.18,0,0,1,.49-8.64c1-5.74,3.66-8.67,4.92-9.78-2.37-1.36-9.54-6.35-10.77-17.37-1.54-13.82,5-18.34,7.35-19.49a9.38,9.38,0,0,1-1.15-1.46,6.81,6.81,0,0,1-.7-2,17,17,0,0,1-10.8,2c-3.5-.51-6.7-2.26-9.52-3.82-2.64-1.45-4.93-2.69-6.87-2.69a5.46,5.46,0,0,0-2.87.49,3.85,3.85,0,0,1,.87,2.51,2.94,2.94,0,0,1-1.32,2.16c-2.47,1.82-4.87.21-5.95-1l-4.33-.09h-.7l-4.33.09c-1.07,1.26-3.47,2.87-5.95,1a2.94,2.94,0,0,1-1.32-2.16,3.84,3.84,0,0,1,.86-2.51,5.46,5.46,0,0,0-2.87-.49c-1.95,0-4.23,1.24-6.87,2.69-2.83,1.55-6,3.3-9.53,3.82a17,17,0,0,1-10.8-2,6.81,6.81,0,0,1-.7,2,9,9,0,0,1-1.15,1.46c2.32,1.15,8.89,5.67,7.35,19.49-1.22,11-8.39,16-10.77,17.37,1.26,1.11,3.87,4,4.92,9.78a53.37,53.37,0,0,1,.49,8.64c0,3.8.07,7.72.84,10.77,1.55,6.12,4.9,9.76,9.94,10.82,4,.85,5.7.16,6.93-.34a4,4,0,0,1,1.53-.41" transform="translate(-275.53 -276.04)" style="fill:#231f20"/></svg>