<svg width="51" height="29" viewBox="0 0 51 29" fill="none" xmlns="http://www.w3.org/2000/svg">
<g clip-path="url(#clip0_109_179)">
<path d="M50.9998 4.78345H34.5747C33.4189 4.78345 32.4819 5.72042 32.4819 6.87623C32.4819 8.03204 33.4189 8.96901 34.5747 8.96901H50.9998V4.78345Z" fill="#E60012"/>
<path d="M51.0001 14.9485H30.9321C29.7763 14.9485 28.8394 15.8855 28.8394 17.0413C28.8394 18.1971 29.7763 19.1341 30.9321 19.1341H51.0001V14.9485Z" fill="#E60012"/>
<path d="M51.0001 25.1133H26.5327C25.4594 25.1133 24.5894 25.9833 24.5894 27.0566C24.5894 28.1298 25.4594 28.9999 26.5327 28.9999H51.0001V25.1133Z" fill="#E60012"/>
<path d="M21.4026 8.76152C21.7902 7.78566 22.1777 6.70373 22.5007 5.49451C23.0605 3.43672 23.3189 1.56986 23.4481 0C23.1682 0.848574 22.5007 2.52451 20.9289 4.03072C19.7877 5.13387 18.625 5.70666 17.8068 6.04609C16.1488 5.21873 14.254 4.7308 12.2516 4.7308C10.2491 4.7308 8.3328 5.21873 6.65332 6.0673C5.83511 5.74909 4.62933 5.15508 3.46662 4.03072C1.91633 2.54572 1.24884 0.869788 0.990462 0.0212143C1.11965 1.59108 1.37803 3.45794 1.93786 5.51573C2.28237 6.76737 2.66994 7.84931 3.07904 8.86759C1.16272 11.0102 0 13.8105 0 16.8866C0 23.5691 5.51213 29 12.2946 29C19.0771 29 24.5893 23.5691 24.5893 16.8866C24.5893 13.7681 23.3835 10.9254 21.4241 8.78274L21.4026 8.76152ZM3.22977 19.8142C0.839739 18.8383 2.17471 12.8347 2.17471 12.8347L9.96921 15.8683C9.96921 15.8683 5.61979 20.7901 3.22977 19.8142ZM19.7877 19.8142C17.3977 20.7901 13.0483 15.8683 13.0483 15.8683L20.8428 12.8347C20.8428 12.8347 22.1777 18.8383 19.7877 19.8142Z" fill="#E60012"/>
</g>
<defs>
<clipPath id="clip0_109_179">
<rect width="51" height="29" fill="white"/>
</clipPath>
</defs>
</svg>
