<?xml version="1.0" encoding="utf-8"?>
<!-- Generator: Adobe Illustrator 19.0.0, SVG Export Plug-In . SVG Version: 6.00 Build 0)  -->
<svg version="1.1" id="layer" xmlns="http://www.w3.org/2000/svg" xmlns:xlink="http://www.w3.org/1999/xlink" x="0px" y="0px"
	 viewBox="-153 -46 652 652" style="enable-background:new -153 -46 652 652;" xml:space="preserve">
<style type="text/css">
	.st0{fill:#C8102E;}
</style>
<path class="st0" d="M143.2,53.7h24l-19.5,14.1l7.7,24.3L135.1,78l-20.3,14.1l7.7-24.3L103,53.7h24l8.1-23.1L143.2,53.7z
	 M210.8,30.5l-8.1,23.1h-24l19.5,14.1l-7.7,24.3L210.8,78l20.3,14.1l-7.7-24.3l19.5-14.1h-24L210.8,30.5z M217.5,371.1
	c-39.2,25-69.7,9.9-85.4,0c-29.4-18.6-52.8-8-60.7-0.3v21.3c7.2-7.3,17-11.3,28.6-11.3c0,0,11.4-1.1,30.7,8.6
	c12.9,6.5,42.2,27.4,88.3,0c16-9.5,30.7-8.6,30.7-8.6c11.8,0,21.9,4.2,29.1,11.9v-21.4C271.3,363.6,247.5,352,217.5,371.1
	 M217.5,398.5c-39.2,25-69.7,9.9-85.4,0c-29.4-18.6-52.8-5.8-60.7,2v23.4c7.2-7.6,17-15.7,28.6-15.7c0,0,11.4-1.1,30.7,8.6
	c12.9,6.5,42.2,27.4,88.3,0c16-9.5,30.7-8.6,30.7-8.6c11.8,0,21.9,8.3,29.1,16v-23.5C271.3,392.9,247.5,379.4,217.5,398.5
	 M277.1,234.8c3.7-18.3-4.4-26.2-12.4-29.6c1.9-6.5-1.1-15.6-8.1-22.7c-3.9-4-8.5-6.7-12.9-7.9c4.6-17.4-1.3-34.3-20.9-39.5
	c-4.9-1.3-10.1-1.2-14.8,0c-7.3-12.2-20.7-20.4-35.9-20.4c-15,0-28.1,8-35.5,19.9c-8.2-1.6-17.1,0.4-24.2,6
	c-10.8,8.5-14.3,22.9-9.6,35.2c-8.1,0.7-15.3,5-18.8,12.2c-2.8,5.8-2.5,12.4,0,18.3c-8.4,4.1-14.1,11.9-14.1,21
	c0,2.1,0.3,4.1,0.9,6.1c-9.2,6-15.4,16.4-15.4,28.2c0,18.6,15.2,33.7,34.1,33.7c4.6,0,9-0.9,13-2.6c5.6,10.8,16.9,18.2,29.9,18.2
	c7.1,0,13.7-2.4,19.1-6.2v45.4c-32.8-18.5-48-17.9-53.2-17.9c-7.7-0.4-21,3.2-26.8,9.3v21.3c6-6.2,20.7-10.6,31.9-10.1
	c5.9,0.3,18.6,2.9,31.8,10.5c19.3,11.1,34.2,13.2,34.2,13.2v-101c-5.5,7.1-16.1,11.9-28.1,11.9c-15.6,0-28.5-7.9-31.6-18.5
	c-1.9,2.2-4.5,4.1-7.5,5.2c-8.7,3.2-18-0.6-20.8-8.5c-2.8-7.9,1.9-16.9,10.6-20.1c1-0.4,2.1-0.7,3.1-0.8c-5.7-5.3-8.2-12.3-5.6-17.8
	c2.6-5.7,9.8-8.3,17.7-7c-2.7-3.1-4.2-6.9-4.2-11.1c0-10.3,9.6-18.7,21.5-18.7c0.9,0,1.7,0,2.6,0.1c-3.6-3.9-5.8-9.2-5.8-15
	c0-12.1,9.6-21.9,21.4-21.9c3.2,0,6.3,0.7,9,2c1.5-10,10.6-17.6,21.5-17.6c11.1,0,20.3,7.9,21.6,18c3.1-1.9,6.8-2.6,10.6-2.6
	c11.8,0,21.4,10.1,21.4,22.6c0,5.7-1.8,10.7-5.1,14.6c0.7-0.1,1.5-0.1,2.2-0.1c11.7,0,21.2,8.2,21.2,18.4c0,3.4-1,6.5-2.9,9.2
	c6.7-0.1,12.9,3.7,15.1,10c1.8,5,0.7,10.5-2.5,14.7c0.2,0,0.4,0.1,0.7,0.1c8.7,1.6,14.6,9.8,13.1,18.5c-1.5,8.7-9.8,14.4-18.5,12.9
	c-4.6-0.8-8.5-3.6-10.8-7.2c-1.9,11.2-15,19.9-30.8,19.9c-11.2,0-22.2-4.3-27.7-10.8l0,100.8c0,0,14.9-2.1,34.2-13.2
	c13.2-7.6,25.9-10.2,31.8-10.5c11.6-0.5,26.4,3.6,31.9,10.2v-21.3c-5.5-6.6-18.9-9.8-26.8-9.4c-5.1,0-20.5-0.6-53.3,17.9l0-45.4
	c3.4,1.9,8.7,4,12.8,4.4c14.1,1.3,29.1-5.5,36.1-16.9c22.8,6,40-8.8,43.3-25.1c0.5-2.4,0.7-4.7,0.8-7
	C291.7,249.4,286.3,241,277.1,234.8 M158.4,458.1c0-3.8-0.9-5.1-3.8-5.1h-2.2v0v14.2v0h2.2c2.9,0,3.8-1.3,3.8-5.1v0V458.1
	L158.4,458.1z M190.9,516.4c1.1,0,3-0.1,4-0.2v13.9c-1.8,0.3-3.8,0.4-5.8,0.4c-12.7,0-25.6-6.8-29.9-18.2c-2-5.3-1.6-11.9-1.6-11.9
	l0-15.6c0-4-2-6-5-6h-0.2v31.3h-13.6v-68.9h16.4c11.4,0,16.3,3.9,16.3,12.9v7.5c0,7.4-3.6,11.5-10.8,11.9v0.4
	c8.2,0.5,10.8,3.8,10.8,12l0,14.5C171.5,500.4,171.1,516.1,190.9,516.4 M71.4,509.9H85v-31.1h11v-11.6H85v-14.1h12.2v-11.6H71.4
	V509.9z M120.4,458.4c0-2.7-0.1-3.6-0.7-4.5c-0.5-0.8-1.4-1.2-2.5-1.2c-1.1,0-1.9,0.4-2.5,1.2c-0.6,0.9-0.7,1.8-0.7,4.5v34.3
	c0,2.7,0.1,3.6,0.7,4.5c0.5,0.8,1.4,1.2,2.5,1.2c1.1,0,1.9-0.4,2.5-1.2c0.6-0.9,0.7-1.8,0.7-4.5V458.4z M117.3,440.5
	c6.1,0,10.5,1.9,13.2,5.2c2.7,3.4,3.6,8.2,3.6,15.6v28.4c0,7.4-0.8,12.2-3.6,15.6c-2.7,3.4-7.1,5.2-13.2,5.2
	c-6.1,0-10.5-1.9-13.2-5.2c-2.7-3.4-3.6-8.2-3.6-15.6v-28.4c0-7.4,0.8-12.2,3.6-15.6C106.8,442.4,111.2,440.5,117.3,440.5
	 M248.2,441.5v11.6h8.5v56.8h13.5v-56.8h8.5v-11.6H248.2z M195.5,457.8c0-2.1-0.1-3-0.6-3.7c-0.5-0.7-1.2-1-2.2-1
	c-1,0-1.7,0.3-2.2,1c-0.5,0.8-0.6,1.6-0.6,3.7v9.4h5.6V457.8z M192.7,440.7c5.4,0,9.6,1.3,12.4,4c3,3,3.9,7.1,3.9,13v21.1h-19v14.9
	c0,2.1,0.1,2.9,0.6,3.6c0.5,0.7,1.2,1,2.2,1c1,0,1.7-0.3,2.2-1c0.5-0.8,0.6-1.5,0.6-3.6v-7.9h13.4v9.8c-0.2,4.9-1.1,8.3-3.9,11
	c-2.8,2.7-6.7,4-12.4,4c-5.7,0-9.5-1.3-12.3-4c-3-3-3.9-7.1-3.9-13v-35.8c0-5.9,0.8-10.1,3.9-13
	C183.2,441.9,187.2,440.7,192.7,440.7 M235.2,470.2l-1.8-1.1c-5.3-3.3-6.2-4.5-6.2-7.5v-0.2v-3.4v-1.5c0-2.2,0.9-3.4,2.7-3.4
	c1.1,0,1.9,0.5,2.2,1.2c0.4,0.8,0.5,1.4,0.5,7.4v2.5h13.6v-3.3c0-8.4-0.4-11.8-4-15.5c-2.8-2.9-6.9-4.4-12.3-4.4
	c-10.4,0-16.3,5.9-16.3,15.5v0.7v4.3v1.3c0,9.1,3.4,11.9,11.7,17l1.8,1.1c5.3,3.3,6.1,4.5,6.1,7.5v0.4v4.6v1.6
	c0,2.4-1.2,3.4-2.7,3.4c-1.1,0-1.9-0.5-2.2-1.2c-0.4-0.9-0.4-0.6-0.4-6.5v-4.8h-13.6v4.8c0,8.4,0.4,11.8,4,15.5
	c2.8,2.9,6.9,4.4,12.3,4.4c10.4,0,16.3-5.9,16.3-15.5v-0.8v-5.4v-1.5C246.9,478.1,243.5,475.4,235.2,470.2"/>
</svg>
